<svg width="33" height="32" viewBox="0 0 33 32" fill="none" xmlns="http://www.w3.org/2000/svg">
<path d="M6.5 10.5H7V12C7 12.2764 7.22363 12.5 7.5 12.5H8.05231L8.43262 15.9253C8.46094 16.1812 8.67773 16.3701 8.92871 16.3701C8.94727 16.3701 8.96582 16.3691 8.98535 16.3672C9.25977 16.3364 9.45703 16.0894 9.42676 15.8149L9.05872 12.5H13V22C13 22.1846 13.1016 22.354 13.2637 22.4409C13.4258 22.5278 13.623 22.5181 13.7773 22.416L16.5 20.6011L19.2227 22.416C19.3066 22.4717 19.4033 22.5 19.5 22.5C19.5811 22.5 19.6621 22.4805 19.7363 22.4409C19.8984 22.354 20 22.1846 20 22V12.5H23.9413L22.0527 29.5H10.9473L9.86719 19.7949C9.83691 19.52 9.59961 19.3193 9.31445 19.353C9.04004 19.3838 8.84277 19.6309 8.87305 19.9053L9.9411 29.5H9.5C9.22363 29.5 9 29.7236 9 30C9 30.2764 9.22363 30.5 9.5 30.5H23.5C23.7764 30.5 24 30.2764 24 30C24 29.7236 23.7764 29.5 23.5 29.5H23.0588L24.9476 12.5H25.5C25.7764 12.5 26 12.2764 26 12V10.5H26.5C26.7764 10.5 27 10.2764 27 10C27 9.72363 26.7764 9.5 26.5 9.5H22.1099L22.9902 5.09814C23.0234 4.93408 22.9717 4.76465 22.8535 4.64648L21.8497 3.64264C21.9432 3.44708 22 3.2309 22 3C22 2.17285 21.3271 1.5 20.5 1.5C19.6729 1.5 19 2.17285 19 3C19 3.82715 19.6729 4.5 20.5 4.5C20.7308 4.5 20.947 4.44324 21.1426 4.34973L21.957 5.16455L21.0901 9.5H11.9099L11.043 5.16455L11.8574 4.34973C12.053 4.44324 12.2692 4.5 12.5 4.5C13.3271 4.5 14 3.82715 14 3C14 2.17285 13.3271 1.5 12.5 1.5C11.6729 1.5 11 2.17285 11 3C11 3.2309 11.0568 3.44708 11.1503 3.64264L10.1465 4.64648C10.0283 4.76465 9.97656 4.93408 10.0098 5.09814L10.8901 9.5H6.5C6.22363 9.5 6 9.72363 6 10C6 10.2764 6.22363 10.5 6.5 10.5ZM20 3C20 2.72412 20.2246 2.5 20.5 2.5C20.7754 2.5 21 2.72412 21 3C21 3.27588 20.7754 3.5 20.5 3.5C20.2246 3.5 20 3.27588 20 3ZM12.5 2.5C12.7754 2.5 13 2.72412 13 3C13 3.27588 12.7754 3.5 12.5 3.5C12.2246 3.5 12 3.27588 12 3C12 2.72412 12.2246 2.5 12.5 2.5ZM19 21.0659L16.7773 19.584C16.6094 19.4717 16.3906 19.4717 16.2227 19.584L14 21.0659V12.5H19V21.0659ZM25 10.5V11.5H8V10.5H25Z" fill="white"/>
<path d="M16.5 16.5C16.7761 16.5 17 16.2761 17 16C17 15.7239 16.7761 15.5 16.5 15.5C16.2239 15.5 16 15.7239 16 16C16 16.2761 16.2239 16.5 16.5 16.5Z" fill="white"/>
</svg>
