<svg width="33" height="32" viewBox="0 0 33 32" fill="none" xmlns="http://www.w3.org/2000/svg">
<path d="M16.5 2.25092C16.7935 2.25092 17.0823 2.32487 17.3398 2.46576L28.3398 8.48822L28.4414 8.54779C28.6719 8.69485 28.8648 8.89468 29.0049 9.1308C29.165 9.40071 29.2498 9.70858 29.25 10.0224V21.9775L29.2461 22.0947C29.2276 22.3676 29.145 22.6328 29.0049 22.8691C28.8448 23.139 28.6151 23.361 28.3398 23.5117L17.3398 29.5331C17.0824 29.6748 16.7938 29.7499 16.5 29.7499C16.2061 29.7499 15.9167 29.6758 15.6592 29.5341V29.5331L4.66016 23.5117C4.38485 23.361 4.15522 23.139 3.99512 22.8691C3.83506 22.5992 3.75019 22.2913 3.75 21.9775V10.0224L3.75391 9.90521C3.77238 9.63227 3.855 9.36703 3.99512 9.1308C4.15522 8.86089 4.38485 8.63885 4.66016 8.48822L15.6602 2.46576C15.9177 2.32487 16.2065 2.25092 16.5 2.25092ZM5.25 21.9775L5.25879 22.0439C5.26466 22.0653 5.27375 22.0862 5.28516 22.1054C5.30802 22.1439 5.34064 22.1757 5.37988 22.1972L15.75 27.873V16.579L5.25 10.8329V21.9775ZM17.25 16.579V27.8691L27.4902 22.2675V22.2665L27.6201 22.1953C27.6592 22.1738 27.692 22.1427 27.7148 22.1044C27.7376 22.0661 27.7498 22.0221 27.75 21.9775V10.8329L17.25 16.579ZM16.5 3.74994C16.4586 3.74994 16.418 3.76103 16.3818 3.78119L16.3799 3.78217L5.93652 9.49994L16.5 15.2792L27.0625 9.49994L16.6201 3.78217L16.6182 3.78119C16.582 3.76103 16.5414 3.74994 16.5 3.74994Z" fill="white" stroke="white" stroke-width="0.5"/>
</svg>
