<svg width="33" height="32" viewBox="0 0 33 32" fill="none" xmlns="http://www.w3.org/2000/svg">
<path d="M24.9298 16.7501V9.10513C24.9271 8.56412 24.7191 8.04431 24.3478 7.65078C23.9766 7.25724 23.4698 7.01933 22.9298 6.98513L17.6348 4.06013C17.5013 3.88592 17.3295 3.74479 17.1327 3.64766C16.9358 3.55052 16.7193 3.5 16.4998 3.5C16.2803 3.5 16.0638 3.55052 15.867 3.64766C15.6702 3.74479 15.4983 3.88592 15.3648 4.06013L10.0448 7.00013C9.50934 7.04037 9.00869 7.28091 8.64265 7.67382C8.27662 8.06673 8.07209 8.58314 8.06982 9.12013V16.7501C8.07114 17.316 8.29651 17.8582 8.69661 18.2583C9.09671 18.6584 9.63899 18.8838 10.2048 18.8851H22.7948C23.3607 18.8838 23.9029 18.6584 24.303 18.2583C24.7031 17.8582 24.9285 17.316 24.9298 16.7501ZM16.4998 6.39013C16.8129 6.38961 17.1172 6.28672 17.3664 6.09715C17.6155 5.90757 17.7958 5.64172 17.8798 5.34013L20.8498 6.97013H12.1498L15.1198 5.34013C15.2038 5.64172 15.3841 5.90757 15.6333 6.09715C15.8824 6.28672 16.1868 6.38961 16.4998 6.39013ZM16.9448 4.94513C16.9448 5.03314 16.9187 5.11918 16.8698 5.19236C16.8209 5.26554 16.7514 5.32257 16.6701 5.35626C16.5888 5.38994 16.4993 5.39875 16.413 5.38158C16.3267 5.36441 16.2474 5.32203 16.1852 5.25979C16.1229 5.19756 16.0805 5.11827 16.0634 5.03194C16.0462 4.94562 16.055 4.85615 16.0887 4.77484C16.1224 4.69352 16.1794 4.62402 16.2526 4.57513C16.3258 4.52623 16.4118 4.50013 16.4998 4.50013C16.6178 4.50013 16.731 4.54701 16.8145 4.63047C16.8979 4.71392 16.9448 4.82711 16.9448 4.94513ZM9.06982 16.7501V9.10513C9.06982 8.80411 9.1894 8.51542 9.40226 8.30256C9.61511 8.08971 9.9038 7.97013 10.2048 7.97013H22.7948C23.0958 7.97013 23.3845 8.08971 23.5974 8.30256C23.8102 8.51542 23.9298 8.80411 23.9298 9.10513V16.7501C23.9298 17.0512 23.8102 17.3398 23.5974 17.5527C23.3845 17.7655 23.0958 17.8851 22.7948 17.8851H10.2048C9.9038 17.8851 9.61511 17.7655 9.40226 17.5527C9.1894 17.3398 9.06982 17.0512 9.06982 16.7501Z" fill="white"/>
<path d="M23.22 16.6751V9.17511C23.22 9.0425 23.1673 8.91532 23.0736 8.82156C22.9798 8.72779 22.8526 8.67511 22.72 8.67511H10.28C10.1474 8.67511 10.0202 8.72779 9.92645 8.82156C9.83268 8.91532 9.78 9.0425 9.78 9.17511V16.6751C9.78 16.8077 9.83268 16.9349 9.92645 17.0287C10.0202 17.1224 10.1474 17.1751 10.28 17.1751H22.72C22.8526 17.1751 22.9798 17.1224 23.0736 17.0287C23.1673 16.9349 23.22 16.8077 23.22 16.6751ZM22.22 16.1751H10.78V9.67511H22.22V16.1751ZM26.83 17.9601C26.3886 17.9584 25.9572 18.0919 25.594 18.3428C25.2308 18.5936 24.9532 18.9497 24.7985 19.3631C24.6438 19.7765 24.6195 20.2274 24.7288 20.6551C24.8381 21.0828 25.0759 21.4667 25.41 21.7551V22.9051C22.4828 23.5332 19.4934 23.8251 16.5 23.7751C13.5067 23.8221 10.5177 23.5302 7.59 22.9051V21.7551C7.92461 21.4655 8.1627 21.0806 8.27234 20.6519C8.38198 20.2232 8.35793 19.7712 8.20342 19.3565C8.04892 18.9419 7.77133 18.5844 7.40788 18.3319C7.04444 18.0795 6.61251 17.9442 6.17 17.9442C5.72749 17.9442 5.29556 18.0795 4.93212 18.3319C4.56867 18.5844 4.29109 18.9419 4.13658 19.3565C3.98207 19.7712 3.95802 20.2232 4.06766 20.6519C4.1773 21.0806 4.41539 21.4655 4.75 21.7551V27.0801C4.75 27.4567 4.89961 27.8179 5.16591 28.0842C5.43221 28.3505 5.79339 28.5001 6.17 28.5001C6.54661 28.5001 6.90779 28.3505 7.17409 28.0842C7.44039 27.8179 7.59 27.4567 7.59 27.0801V26.1351C10.5262 26.6967 13.5107 26.9664 16.5 26.9401C19.4893 26.9664 22.4738 26.6967 25.41 26.1351V27.0801C25.41 27.4567 25.5596 27.8179 25.8259 28.0842C26.0922 28.3505 26.4534 28.5001 26.83 28.5001C27.2066 28.5001 27.5678 28.3505 27.8341 28.0842C28.1004 27.8179 28.25 27.4567 28.25 27.0801V21.7551C28.5841 21.4667 28.8219 21.0828 28.9312 20.6551C29.0405 20.2274 29.0162 19.7765 28.8615 19.3631C28.7068 18.9497 28.4292 18.5936 28.066 18.3428C27.7028 18.0919 27.2714 17.9584 26.83 17.9601ZM26.83 18.9601C27.0616 18.9601 27.288 19.0289 27.4805 19.1576C27.673 19.2864 27.823 19.4695 27.9114 19.6835C27.9998 19.8976 28.0227 20.1331 27.9771 20.3602C27.9316 20.5873 27.8197 20.7958 27.6555 20.9592C27.4914 21.1226 27.2825 21.2337 27.0552 21.2782C26.8279 21.3228 26.5925 21.2989 26.3788 21.2096C26.1651 21.1203 25.9827 20.9695 25.8547 20.7765C25.7268 20.5834 25.659 20.3567 25.66 20.1251C25.66 19.9717 25.6903 19.8198 25.7492 19.6781C25.808 19.5365 25.8943 19.4078 26.003 19.2996C26.1117 19.1913 26.2407 19.1056 26.3826 19.0474C26.5246 18.9891 26.6766 18.9595 26.83 18.9601ZM6.17 18.9601C6.40162 18.9601 6.62802 19.0289 6.82053 19.1576C7.01305 19.2864 7.163 19.4695 7.25141 19.6835C7.33981 19.8976 7.36269 20.1331 7.31714 20.3602C7.27159 20.5873 7.15966 20.7958 6.99553 20.9592C6.8314 21.1226 6.62246 21.2337 6.39518 21.2782C6.16789 21.3228 5.93249 21.2989 5.71879 21.2096C5.50508 21.1203 5.3227 20.9695 5.19475 20.7765C5.06679 20.5834 4.99901 20.3567 5 20.1251C5 19.9717 5.0303 19.8198 5.08916 19.6781C5.14802 19.5365 5.23428 19.4078 5.34299 19.2996C5.4517 19.1913 5.58072 19.1056 5.72264 19.0474C5.86456 18.9891 6.01659 18.9595 6.17 18.9601ZM6.17 27.5001C6.11466 27.5008 6.05974 27.4904 6.00848 27.4695C5.95722 27.4486 5.91066 27.4177 5.87152 27.3786C5.83239 27.3395 5.80147 27.2929 5.7806 27.2416C5.75973 27.1904 5.74933 27.1355 5.75 27.0801V22.2551C6.02746 22.3084 6.31254 22.3084 6.59 22.2551V27.0801C6.5887 27.1911 6.54404 27.2972 6.46555 27.3757C6.38706 27.4541 6.28099 27.4988 6.17 27.5001ZM16.5 25.9401C13.5096 25.9701 10.524 25.6937 7.59 25.1151V23.9301C10.5206 24.5341 13.5081 24.8174 16.5 24.7751C19.4919 24.8174 22.4794 24.5341 25.41 23.9301V25.1151C22.476 25.6937 19.4904 25.9701 16.5 25.9401ZM27.25 27.0801C27.2507 27.1355 27.2403 27.1904 27.2194 27.2416C27.1985 27.2929 27.1676 27.3395 27.1285 27.3786C27.0893 27.4177 27.0428 27.4486 26.9915 27.4695C26.9403 27.4904 26.8853 27.5008 26.83 27.5001C26.719 27.4988 26.6129 27.4541 26.5345 27.3757C26.456 27.2972 26.4113 27.1911 26.41 27.0801C26.41 25.5801 26.41 26.1601 26.41 22.2551C26.6875 22.3084 26.9725 22.3084 27.25 22.2551V27.0801Z" fill="white"/>
<path d="M15.8 15.3901C16.1857 15.3889 16.5672 15.3094 16.9213 15.1564C17.2754 15.0034 17.5947 14.7801 17.86 14.5001L18.46 14.8451C18.517 14.8782 18.5801 14.8996 18.6455 14.9082C18.7109 14.9168 18.7773 14.9124 18.841 14.8952C18.9047 14.878 18.9643 14.8484 19.0165 14.808C19.0686 14.7677 19.1123 14.7174 19.145 14.6601C19.204 14.5472 19.2178 14.4161 19.1834 14.2934C19.149 14.1708 19.0691 14.0659 18.96 14.0001L18.425 13.6851C18.5855 13.3212 18.669 12.9279 18.67 12.5301C18.6684 12.3218 18.6466 12.1142 18.605 11.9101C18.37 10.8401 17.665 10.4101 17.105 10.4751C16.8752 10.4991 16.6631 10.6095 16.5118 10.7841C16.3604 10.9586 16.2811 11.1842 16.29 11.4151C16.287 11.7305 16.2044 12.0401 16.05 12.3151L15.31 11.8901C15.1957 11.8303 15.0628 11.817 14.9389 11.853C14.8151 11.8889 14.7099 11.9713 14.6453 12.0829C14.5808 12.1946 14.5619 12.3269 14.5926 12.4521C14.6233 12.5774 14.7011 12.6859 14.81 12.7551L15.31 13.0451C15.0367 13.1993 14.7288 13.2819 14.415 13.2851C14.3306 13.2837 14.2468 13.2995 14.1687 13.3316C14.0906 13.3637 14.0199 13.4114 13.9609 13.4718C13.902 13.5322 13.8559 13.604 13.8257 13.6828C13.7954 13.7616 13.7816 13.8458 13.785 13.9301C13.785 14.5251 14.5 15.3901 15.8 15.3901ZM17.3 11.4901C17.4853 11.6518 17.6046 11.8761 17.635 12.1201C17.6653 12.253 17.6804 12.3888 17.68 12.5251C17.6771 12.7475 17.6348 12.9675 17.555 13.1751L16.93 12.8151C17.1526 12.4115 17.276 11.9608 17.29 11.5001L17.3 11.4901ZM16.3 13.5951L16.95 14.0001C16.623 14.2605 16.2179 14.4032 15.8 14.4051C15.5457 14.4133 15.2943 14.3491 15.075 14.2201C15.5178 14.1109 15.9277 13.8965 16.27 13.5951H16.3ZM12.5 19.6351C12.2813 19.6229 12.0625 19.6554 11.8569 19.7307C11.6512 19.806 11.4631 19.9224 11.304 20.0729C11.1449 20.2234 11.0182 20.4047 10.9316 20.6058C10.845 20.807 10.8003 21.0236 10.8003 21.2426C10.8003 21.4616 10.845 21.6783 10.9316 21.8794C11.0182 22.0805 11.1449 22.2619 11.304 22.4123C11.4631 22.5628 11.6512 22.6792 11.8569 22.7545C12.0625 22.8298 12.2813 22.8623 12.5 22.8501H20.5C20.7186 22.8623 20.9375 22.8298 21.1431 22.7545C21.3487 22.6792 21.5368 22.5628 21.6959 22.4123C21.855 22.2619 21.9818 22.0805 22.0684 21.8794C22.155 21.6783 22.1997 21.4616 22.1997 21.2426C22.1997 21.0236 22.155 20.807 22.0684 20.6058C21.9818 20.4047 21.855 20.2234 21.6959 20.0729C21.5368 19.9224 21.3487 19.806 21.1431 19.7307C20.9375 19.6554 20.7186 19.6229 20.5 19.6351H12.5ZM21.1 21.2451C21.0987 21.4043 21.0352 21.5567 20.9231 21.6697C20.811 21.7828 20.6592 21.8475 20.5 21.8501H12.5C12.4156 21.8578 12.3305 21.8478 12.2502 21.8207C12.1698 21.7937 12.096 21.7502 12.0334 21.693C11.9709 21.6359 11.9209 21.5663 11.8867 21.4887C11.8525 21.4112 11.8348 21.3274 11.8348 21.2426C11.8348 21.1579 11.8525 21.074 11.8867 20.9965C11.9209 20.9189 11.9709 20.8494 12.0334 20.7922C12.096 20.735 12.1698 20.6915 12.2502 20.6645C12.3305 20.6375 12.4156 20.6274 12.5 20.6351H20.5C20.66 20.6377 20.8126 20.7032 20.9249 20.8173C21.0371 20.9314 21.1 21.085 21.1 21.2451Z" fill="white"/>
</svg>
