<svg width="33" height="32" viewBox="0 0 33 32" fill="none" xmlns="http://www.w3.org/2000/svg">
<path d="M16.5002 25.6667V22.3334M5.8335 22.3334H27.1668C28.0873 22.3334 28.8335 21.5872 28.8335 20.6667V16.9921V12.425V6.00002H17.1018H4.16683V16.6825V20.6667C4.16683 21.5872 4.91303 22.3334 5.8335 22.3334ZM4.00016 6.00002H29.0002C29.6445 6.00002 30.1668 5.47769 30.1668 4.83335C30.1668 4.18902 29.6445 3.66669 29.0002 3.66669H17.1668H4.00016C3.35583 3.66669 2.8335 4.18902 2.8335 4.83335C2.8335 5.47769 3.35583 6.00002 4.00016 6.00002Z" stroke="white" stroke-width="1.5" stroke-linecap="round"/>
<path d="M16.4998 28.3334C17.2362 28.3334 17.8332 27.7364 17.8332 27C17.8332 26.2636 17.2362 25.6667 16.4998 25.6667C15.7635 25.6667 15.1665 26.2636 15.1665 27C15.1665 27.7364 15.7635 28.3334 16.4998 28.3334Z" stroke="white" stroke-width="1.5"/>
<path d="M19.5168 13.2848C20.2216 13.6615 20.2216 14.6718 19.5168 15.0486L15.8879 16.9885C15.2218 17.3446 14.4165 16.8619 14.4165 16.1066V12.2267C14.4165 11.4714 15.2218 10.9887 15.8879 11.3448L19.5168 13.2848Z" stroke="white" stroke-width="1.5"/>
</svg>
