<svg width="33" height="32" viewBox="0 0 33 32" fill="none" xmlns="http://www.w3.org/2000/svg">
<path fill-rule="evenodd" clip-rule="evenodd" d="M26.3075 24.6542C26.3075 24.6542 27.8542 25.1542 27.8542 26.6875C27.8542 27.6342 26.8875 28.0942 26.8875 28.0942C26.5608 28.2608 26.4275 28.6608 26.5875 28.9875C26.7542 29.3142 27.1542 29.4475 27.4808 29.2875C27.4808 29.2875 29.1808 28.4142 29.1808 26.6942C29.1808 24.2275 26.7275 23.3942 26.7275 23.3942C26.3808 23.2742 26.0008 23.4675 25.8875 23.8142C25.7675 24.1608 25.9608 24.5408 26.3075 24.6542ZM6.3075 23.3875C6.3075 23.3875 3.85417 24.2208 3.85417 26.6875C3.85417 28.4075 5.55417 29.2808 5.55417 29.2808C5.88083 29.4475 6.2875 29.3142 6.4475 28.9808C6.61417 28.6542 6.48083 28.2475 6.1475 28.0875C6.1475 28.0875 5.18083 27.6275 5.18083 26.6808C5.18083 25.1475 6.7275 24.6475 6.7275 24.6475C7.07417 24.5342 7.2675 24.1542 7.1475 23.8075C7.03417 23.4608 6.65417 23.2675 6.3075 23.3875ZM29.1875 2.6875H3.85417C3.4875 2.6875 3.1875 2.9875 3.1875 3.35417C3.1875 3.72083 3.4875 4.02083 3.85417 4.02083H5.53417L7.13417 6.02083H3.85417C3.4875 6.02083 3.1875 6.32083 3.1875 6.6875C3.1875 7.05417 3.4875 7.35417 3.85417 7.35417H6.52083V9.08083C4.75417 10.1942 4.54083 11.2075 4.54083 11.2075C4.49417 11.3808 4.52083 11.5608 4.6075 11.7142L7.21417 16.2342L8.89417 23.5075L6.98083 25.3275C6.6475 25.4875 6.40083 25.6608 6.2275 25.8342C5.96083 26.1075 5.8475 26.4008 5.8475 26.6875C5.8475 26.9742 5.96083 27.2675 6.2275 27.5408C6.46083 27.7808 6.85417 28.0208 7.39417 28.2275C9.1075 28.8875 12.5475 29.3542 16.5142 29.3542C20.4808 29.3542 23.9275 28.8875 25.6342 28.2275C26.1742 28.0208 26.5675 27.7808 26.8008 27.5408C27.0675 27.2675 27.1808 26.9742 27.1808 26.6875C27.1808 26.4008 27.0675 26.1075 26.8008 25.8342C26.6342 25.6608 26.3808 25.4875 26.0475 25.3275L24.1342 23.5075L25.8142 16.2342L28.4208 11.7142C28.5075 11.5608 28.5342 11.3808 28.4875 11.2075C28.4875 11.2075 28.2742 10.1942 26.5075 9.08083V7.35417H29.1742C29.5408 7.35417 29.8408 7.05417 29.8408 6.6875C29.8408 6.32083 29.5408 6.02083 29.1742 6.02083H25.8942L27.4942 4.02083H29.1742C29.5408 4.02083 29.8408 3.72083 29.8408 3.35417C29.8408 2.9875 29.5408 2.6875 29.1742 2.6875H29.1875ZM25.3075 26.4542L25.6208 26.7542C25.4875 26.8342 25.3208 26.9275 25.1608 26.9875C23.5408 27.6142 20.2742 28.0208 16.5208 28.0208C12.7675 28.0208 9.49417 27.6075 7.88083 26.9875C7.72083 26.9275 7.55417 26.8342 7.42083 26.7542L7.73417 26.4542C7.78083 26.4342 7.8275 26.4075 7.88083 26.3942C9.50083 25.7675 12.7675 25.3608 16.5208 25.3608C20.2742 25.3608 23.5475 25.7742 25.1608 26.3942C25.2075 26.4142 25.2542 26.4342 25.3075 26.4542ZM13.8542 27.3542H19.1875C19.5542 27.3542 19.8542 27.0542 19.8542 26.6875C19.8542 26.3208 19.5542 26.0208 19.1875 26.0208H13.8542C13.4875 26.0208 13.1875 26.3208 13.1875 26.6875C13.1875 27.0542 13.4875 27.3542 13.8542 27.3542ZM22.5675 24.4208L22.6742 23.9408L16.5208 18.0808L10.3675 23.9408L10.4742 24.4208C12.1742 24.1675 14.2608 24.0208 16.5208 24.0208C18.7808 24.0208 20.8675 24.1742 22.5675 24.4208ZM20.0875 14.6875L17.4875 17.1608L23.0208 22.4342L24.2542 17.0942C23.5808 17.1075 22.7142 16.8808 21.8742 16.3942C21.0342 15.9075 20.4075 15.2742 20.0808 14.6875H20.0875ZM12.9542 14.6875C12.6275 15.2742 12.0008 15.9142 11.1608 16.3942C10.3208 16.8808 9.45417 17.1075 8.78083 17.0942L10.0142 22.4342L15.5475 17.1608L12.9475 14.6875H12.9542ZM9.92083 18.3208L10.5875 19.6542C10.7542 19.9808 11.1542 20.1142 11.4808 19.9542C11.8075 19.7875 11.9408 19.3875 11.7808 19.0608L11.1142 17.7275C10.9475 17.4008 10.5475 17.2675 10.2208 17.4275C9.89417 17.5942 9.76083 17.9942 9.92083 18.3208ZM25.8475 17.3542V19.3542C25.8475 19.7208 26.1475 20.0208 26.5142 20.0208C26.8808 20.0208 27.1808 19.7208 27.1808 19.3542V17.3542C27.1808 16.9875 26.8808 16.6875 26.5142 16.6875C26.1475 16.6875 25.8475 16.9875 25.8475 17.3542ZM5.8475 17.3542V19.3542C5.8475 19.7208 6.1475 20.0208 6.51417 20.0208C6.88083 20.0208 7.18083 19.7208 7.18083 19.3542V17.3542C7.18083 16.9875 6.88083 16.6875 6.51417 16.6875C6.1475 16.6875 5.8475 16.9875 5.8475 17.3542ZM25.1808 7.35417H7.85417V8.3875C9.24083 7.8275 9.98083 8.0675 9.98083 8.0675C10.1542 8.11417 10.2942 8.2275 10.3875 8.38083L12.9742 12.8608L16.5208 16.2408C16.5208 16.2408 20.0675 12.8675 20.0675 12.8608L22.6542 8.37417C22.7408 8.22083 22.8875 8.1075 23.0608 8.06083C23.0608 8.06083 23.7942 7.82083 25.1875 8.38083V7.3475L25.1808 7.35417ZM24.6008 15.6675C24.5742 15.7142 24.5142 15.7208 24.4542 15.7342C24.3408 15.7608 24.2142 15.7675 24.0742 15.7608C23.6208 15.7342 23.0742 15.5542 22.5408 15.2475C22.0075 14.9408 21.5742 14.5542 21.3275 14.1742C21.2475 14.0542 21.1875 13.9408 21.1608 13.8275C21.1408 13.7675 21.1208 13.7142 21.1475 13.6675C21.1742 13.6208 21.2342 13.6142 21.2942 13.6008C21.4075 13.5742 21.5342 13.5675 21.6742 13.5742C22.1275 13.6008 22.6742 13.7808 23.2075 14.0875C23.7408 14.3942 24.1742 14.7808 24.4208 15.1608C24.5008 15.2808 24.5608 15.3942 24.5875 15.5075C24.6075 15.5675 24.6275 15.6275 24.6008 15.6675ZM8.42083 15.6675C8.39417 15.6208 8.42083 15.5675 8.43417 15.5075C8.4675 15.3942 8.5275 15.2808 8.60083 15.1608C8.85417 14.7808 9.28083 14.4008 9.81417 14.0875C10.3475 13.7808 10.8942 13.6008 11.3475 13.5742C11.4875 13.5675 11.6208 13.5742 11.7275 13.6008C11.7875 13.6142 11.8475 13.6208 11.8742 13.6675C11.9008 13.7142 11.8742 13.7675 11.8608 13.8275C11.8275 13.9408 11.7675 14.0542 11.6942 14.1742C11.4408 14.5542 11.0142 14.9342 10.4808 15.2475C9.9475 15.5542 9.40083 15.7342 8.9475 15.7608C8.8075 15.7675 8.67417 15.7608 8.5675 15.7342C8.5075 15.7208 8.4475 15.7142 8.42083 15.6675ZM11.0742 12.2608L9.4075 9.37417C9.0675 9.4075 8.38083 9.53417 7.4875 10.0475C6.59417 10.5608 6.14083 11.0875 5.94083 11.3742L7.6075 14.2608C7.96083 13.7875 8.4875 13.3142 9.1475 12.9342C9.8075 12.5542 10.4808 12.3342 11.0675 12.2608H11.0742ZM21.9475 12.2608C22.5342 12.3342 23.2075 12.5542 23.8675 12.9342C24.5275 13.3142 25.0542 13.7875 25.4075 14.2608L27.0742 11.3742C26.8742 11.0942 26.4208 10.5608 25.5275 10.0475C24.6342 9.53417 23.9475 9.40083 23.6075 9.37417L21.9408 12.2608H21.9475ZM18.8075 11.4675L17.4742 12.3542C17.1675 12.5608 17.0875 12.9742 17.2875 13.2808C17.4942 13.5875 17.9075 13.6675 18.2142 13.4675L19.5475 12.5808C19.8542 12.3742 19.9342 11.9608 19.7342 11.6542C19.5275 11.3475 19.1142 11.2675 18.8075 11.4675ZM13.4742 12.5742L14.8075 13.4608C15.1142 13.6675 15.5275 13.5808 15.7342 13.2742C15.9408 12.9675 15.8542 12.5542 15.5475 12.3475L14.2142 11.4608C13.9075 11.2542 13.4942 11.3408 13.2875 11.6475C13.0808 11.9542 13.1675 12.3675 13.4742 12.5742ZM9.89417 6.02083H12.4542L11.1742 4.42083L9.89417 6.02083ZM15.2275 6.02083H17.7875L16.5075 4.42083L15.2275 6.02083ZM20.5608 6.02083H23.1208L21.8408 4.42083L20.5608 6.02083ZM15.1208 4.02083H12.5608L13.8408 5.62083L15.1208 4.02083ZM9.7875 4.02083H7.2275L8.5075 5.62083L9.7875 4.02083ZM20.4542 4.02083H17.8942L19.1742 5.62083L20.4542 4.02083ZM25.7875 4.02083H23.2275L24.5075 5.62083L25.7875 4.02083Z" fill="white"/>
</svg>
