<svg width="19" height="16" viewBox="0 0 19 16" fill="none" xmlns="http://www.w3.org/2000/svg">
<path d="M18.4474 8.53055L11.6974 15.2806C11.5566 15.4213 11.3658 15.5003 11.1667 15.5003C10.9677 15.5003 10.7769 15.4213 10.6361 15.2806C10.4954 15.1398 10.4163 14.949 10.4163 14.7499C10.4163 14.5509 10.4954 14.36 10.6361 14.2193L16.1064 8.74993H1.41675C1.21784 8.74993 1.02707 8.67091 0.886418 8.53026C0.745766 8.38961 0.666748 8.19884 0.666748 7.99993C0.666748 7.80102 0.745766 7.61025 0.886418 7.4696C1.02707 7.32895 1.21784 7.24993 1.41675 7.24993H16.1064L10.6361 1.78055C10.4954 1.63982 10.4163 1.44895 10.4163 1.24993C10.4163 1.05091 10.4954 0.860034 10.6361 0.719304C10.7769 0.578573 10.9677 0.499512 11.1667 0.499512C11.3658 0.499512 11.5566 0.578573 11.6974 0.719304L18.4474 7.4693C18.5171 7.53896 18.5724 7.62168 18.6102 7.71272C18.6479 7.80377 18.6673 7.90137 18.6673 7.99993C18.6673 8.09849 18.6479 8.19609 18.6102 8.28713C18.5724 8.37818 18.5171 8.4609 18.4474 8.53055Z" fill="#2161E0"/>
</svg>
