<svg width="64" height="64" viewBox="0 0 64 64" fill="none" xmlns="http://www.w3.org/2000/svg">
<path d="M12 21H13V24C13 24.5527 13.4473 25 14 25H15.1046L15.8652 31.8506C15.9219 32.3623 16.3555 32.7402 16.8574 32.7402C16.8945 32.7402 16.9316 32.7383 16.9707 32.7344C17.5195 32.6729 17.9141 32.1787 17.8535 31.6299L17.1174 25H25V44C25 44.3691 25.2031 44.708 25.5273 44.8818C25.8516 45.0557 26.2461 45.0361 26.5547 44.832L32 41.2021L37.4453 44.832C37.6133 44.9434 37.8066 45 38 45C38.1621 45 38.3242 44.9609 38.4727 44.8818C38.7969 44.708 39 44.3691 39 44V25H46.8826L43.1055 59H20.8945L18.7344 39.5898C18.6738 39.04 18.1992 38.6387 17.6289 38.7061C17.0801 38.7676 16.6855 39.2617 16.7461 39.8105L18.8822 59H18C17.4473 59 17 59.4473 17 60C17 60.5527 17.4473 61 18 61H46C46.5527 61 47 60.5527 47 60C47 59.4473 46.5527 59 46 59H45.1176L48.8953 25H50C50.5527 25 51 24.5527 51 24V21H52C52.5527 21 53 20.5527 53 20C53 19.4473 52.5527 19 52 19H43.2197L44.9805 10.1963C45.0469 9.86816 44.9434 9.5293 44.707 9.29297L42.6993 7.28528C42.8865 6.89417 43 6.46179 43 6C43 4.3457 41.6543 3 40 3C38.3457 3 37 4.3457 37 6C37 7.6543 38.3457 9 40 9C40.4617 9 40.894 8.88647 41.2852 8.69946L42.9141 10.3291L41.1803 19H22.8197L21.0859 10.3291L22.7148 8.69946C23.106 8.88647 23.5383 9 24 9C25.6543 9 27 7.6543 27 6C27 4.3457 25.6543 3 24 3C22.3457 3 21 4.3457 21 6C21 6.46179 21.1135 6.89417 21.3007 7.28528L19.293 9.29297C19.0566 9.5293 18.9531 9.86816 19.0195 10.1963L20.7803 19H12C11.4473 19 11 19.4473 11 20C11 20.5527 11.4473 21 12 21ZM39 6C39 5.44824 39.4492 5 40 5C40.5508 5 41 5.44824 41 6C41 6.55176 40.5508 7 40 7C39.4492 7 39 6.55176 39 6ZM24 5C24.5508 5 25 5.44824 25 6C25 6.55176 24.5508 7 24 7C23.4492 7 23 6.55176 23 6C23 5.44824 23.4492 5 24 5ZM37 42.1318L32.5547 39.168C32.2188 38.9434 31.7812 38.9434 31.4453 39.168L27 42.1318V25H37V42.1318ZM49 21V23H15V21H49Z" fill="#25234d"/>
<path d="M32 33C32.5523 33 33 32.5523 33 32C33 31.4477 32.5523 31 32 31C31.4477 31 31 31.4477 31 32C31 32.5523 31.4477 33 32 33Z" fill="#25234d"/>
</svg>
