<svg width="65" height="64" viewBox="0 0 65 64" fill="none" xmlns="http://www.w3.org/2000/svg">
<g clip-path="url(#clip0_299_248)">
<mask id="path-1-outside-1_299_248" maskUnits="userSpaceOnUse" x="1.49951" y="-1.04102" width="63" height="66" fill="black">
<rect fill="white" x="1.49951" y="-1.04102" width="63" height="66"/>
<path d="M3.1879 5.23068e-05C2.9821 0.0724021 2.80459 0.208223 2.68095 0.38794C2.5573 0.567658 2.49391 0.781991 2.4999 1.00005V42.9381C2.4999 43.4621 2.9759 43.9381 3.4999 43.9381H8.0619L9.0619 44.0001L16.7499 51.6881C17.2899 52.3001 18.5219 51.8141 18.4999 51.0001V44.0001L25.4999 43.9381H39.4999C39.762 43.9282 40.0106 43.8196 40.196 43.6342C40.3815 43.4488 40.49 43.2001 40.4999 42.9381V11.0001C40.4935 10.7355 40.3865 10.4834 40.2007 10.295C40.0149 10.1066 39.7643 9.99615 39.4999 9.98605C39.2355 9.99615 38.9849 10.1066 38.7991 10.295C38.6133 10.4834 38.5063 10.7355 38.4999 11.0001V41.9381H25.4999L17.4999 42.0001C17.2378 42.01 16.9892 42.1185 16.8038 42.3039C16.6183 42.4894 16.5098 42.738 16.4999 43.0001V48.5621L10.1879 42.2501C9.9978 42.0838 9.75239 41.9946 9.4999 42.0001L8.0619 41.9381H4.4999V2.00005H29.4999C29.7644 1.99363 30.0165 1.88663 30.2049 1.70084C30.3933 1.51506 30.5038 1.26445 30.5139 1.00005C30.5038 0.735656 30.3933 0.485049 30.2049 0.299261C30.0165 0.113473 29.7644 0.00647426 29.4999 5.23068e-05H3.4999C3.39654 -0.0162386 3.29126 -0.0162386 3.1879 5.23068e-05ZM33.1879 5.23068e-05C32.9821 0.0724021 32.8046 0.208223 32.6809 0.38794C32.5573 0.567658 32.4939 0.781991 32.4999 1.00005V7.00005C32.4999 7.52405 32.9759 8.00005 33.4999 8.00005H39.4999C40.3139 8.02005 40.7999 6.79005 40.1879 6.25005L34.1879 0.250052C34.0584 0.123331 33.8976 0.0333771 33.7218 -0.010561C33.5461 -0.0544991 33.3618 -0.0508358 33.1879 5.23068e-05ZM34.4999 3.37605L37.1259 6.00005H34.4999V3.37605ZM8.4999 6.00005V8.00005H26.4999V6.00005H8.4999ZM8.4999 12.0001V14.0001H34.4999V12.0001H8.4999ZM8.4999 18.0001V20.0001H34.4999V18.0001H8.4999ZM8.4999 24.0001V26.0001H34.4999V24.0001H8.4999ZM8.4999 30.0001V32.0001H34.4999V30.0001H8.4999ZM8.4999 36.0001V38.0001H18.4999V36.0001H8.4999ZM54.8119 51.7501L42.3759 51.8121L29.8759 51.8761C29.8339 51.8734 29.7919 51.8734 29.7499 51.8761C29.7079 51.8734 29.6659 51.8734 29.6239 51.8761C29.4979 51.9561 29.2499 52.1261 29.2499 52.1261L19.3119 57.0601C18.6279 57.3801 18.6279 58.5541 19.3119 58.8741L29.1239 63.6861L29.6239 63.9981H29.8759L42.4359 63.9361L54.6879 63.8721C54.7709 63.8825 54.8549 63.8825 54.9379 63.8721C54.9779 63.8761 55.0199 63.8761 55.0619 63.8721H58.7499C61.3899 63.8721 63.5099 61.6961 63.4999 59.0601V56.5001C63.4899 53.8561 61.3039 51.7401 58.6879 51.7501H54.9379C54.8959 51.7474 54.8539 51.7474 54.8119 51.7501ZM53.8759 53.7501L53.9359 56.9381L30.8759 56.8741V53.8741L42.3759 53.8141L53.8759 53.7501ZM55.8759 53.7501H58.6879C60.2179 53.7501 61.4939 54.9461 61.4999 56.5001V59.0621C61.5059 60.6241 60.3079 61.8761 58.7499 61.8761H55.9379L55.8759 53.7501ZM28.8759 54.5001V61.3121L22.0599 57.9401L28.8759 54.5001ZM30.8759 58.8761L53.9359 58.9361V61.8761L42.4359 61.9361L30.8759 62.0001V58.8761Z"/>
</mask>
<path d="M3.1879 5.23068e-05C2.9821 0.0724021 2.80459 0.208223 2.68095 0.38794C2.5573 0.567658 2.49391 0.781991 2.4999 1.00005V42.9381C2.4999 43.4621 2.9759 43.9381 3.4999 43.9381H8.0619L9.0619 44.0001L16.7499 51.6881C17.2899 52.3001 18.5219 51.8141 18.4999 51.0001V44.0001L25.4999 43.9381H39.4999C39.762 43.9282 40.0106 43.8196 40.196 43.6342C40.3815 43.4488 40.49 43.2001 40.4999 42.9381V11.0001C40.4935 10.7355 40.3865 10.4834 40.2007 10.295C40.0149 10.1066 39.7643 9.99615 39.4999 9.98605C39.2355 9.99615 38.9849 10.1066 38.7991 10.295C38.6133 10.4834 38.5063 10.7355 38.4999 11.0001V41.9381H25.4999L17.4999 42.0001C17.2378 42.01 16.9892 42.1185 16.8038 42.3039C16.6183 42.4894 16.5098 42.738 16.4999 43.0001V48.5621L10.1879 42.2501C9.9978 42.0838 9.75239 41.9946 9.4999 42.0001L8.0619 41.9381H4.4999V2.00005H29.4999C29.7644 1.99363 30.0165 1.88663 30.2049 1.70084C30.3933 1.51506 30.5038 1.26445 30.5139 1.00005C30.5038 0.735656 30.3933 0.485049 30.2049 0.299261C30.0165 0.113473 29.7644 0.00647426 29.4999 5.23068e-05H3.4999C3.39654 -0.0162386 3.29126 -0.0162386 3.1879 5.23068e-05ZM33.1879 5.23068e-05C32.9821 0.0724021 32.8046 0.208223 32.6809 0.38794C32.5573 0.567658 32.4939 0.781991 32.4999 1.00005V7.00005C32.4999 7.52405 32.9759 8.00005 33.4999 8.00005H39.4999C40.3139 8.02005 40.7999 6.79005 40.1879 6.25005L34.1879 0.250052C34.0584 0.123331 33.8976 0.0333771 33.7218 -0.010561C33.5461 -0.0544991 33.3618 -0.0508358 33.1879 5.23068e-05ZM34.4999 3.37605L37.1259 6.00005H34.4999V3.37605ZM8.4999 6.00005V8.00005H26.4999V6.00005H8.4999ZM8.4999 12.0001V14.0001H34.4999V12.0001H8.4999ZM8.4999 18.0001V20.0001H34.4999V18.0001H8.4999ZM8.4999 24.0001V26.0001H34.4999V24.0001H8.4999ZM8.4999 30.0001V32.0001H34.4999V30.0001H8.4999ZM8.4999 36.0001V38.0001H18.4999V36.0001H8.4999ZM54.8119 51.7501L42.3759 51.8121L29.8759 51.8761C29.8339 51.8734 29.7919 51.8734 29.7499 51.8761C29.7079 51.8734 29.6659 51.8734 29.6239 51.8761C29.4979 51.9561 29.2499 52.1261 29.2499 52.1261L19.3119 57.0601C18.6279 57.3801 18.6279 58.5541 19.3119 58.8741L29.1239 63.6861L29.6239 63.9981H29.8759L42.4359 63.9361L54.6879 63.8721C54.7709 63.8825 54.8549 63.8825 54.9379 63.8721C54.9779 63.8761 55.0199 63.8761 55.0619 63.8721H58.7499C61.3899 63.8721 63.5099 61.6961 63.4999 59.0601V56.5001C63.4899 53.8561 61.3039 51.7401 58.6879 51.7501H54.9379C54.8959 51.7474 54.8539 51.7474 54.8119 51.7501ZM53.8759 53.7501L53.9359 56.9381L30.8759 56.8741V53.8741L42.3759 53.8141L53.8759 53.7501ZM55.8759 53.7501H58.6879C60.2179 53.7501 61.4939 54.9461 61.4999 56.5001V59.0621C61.5059 60.6241 60.3079 61.8761 58.7499 61.8761H55.9379L55.8759 53.7501ZM28.8759 54.5001V61.3121L22.0599 57.9401L28.8759 54.5001ZM30.8759 58.8761L53.9359 58.9361V61.8761L42.4359 61.9361L30.8759 62.0001V58.8761Z" fill="#25234d"/>
<path d="M3.1879 5.23068e-05C2.9821 0.0724021 2.80459 0.208223 2.68095 0.38794C2.5573 0.567658 2.49391 0.781991 2.4999 1.00005V42.9381C2.4999 43.4621 2.9759 43.9381 3.4999 43.9381H8.0619L9.0619 44.0001L16.7499 51.6881C17.2899 52.3001 18.5219 51.8141 18.4999 51.0001V44.0001L25.4999 43.9381H39.4999C39.762 43.9282 40.0106 43.8196 40.196 43.6342C40.3815 43.4488 40.49 43.2001 40.4999 42.9381V11.0001C40.4935 10.7355 40.3865 10.4834 40.2007 10.295C40.0149 10.1066 39.7643 9.99615 39.4999 9.98605C39.2355 9.99615 38.9849 10.1066 38.7991 10.295C38.6133 10.4834 38.5063 10.7355 38.4999 11.0001V41.9381H25.4999L17.4999 42.0001C17.2378 42.01 16.9892 42.1185 16.8038 42.3039C16.6183 42.4894 16.5098 42.738 16.4999 43.0001V48.5621L10.1879 42.2501C9.9978 42.0838 9.75239 41.9946 9.4999 42.0001L8.0619 41.9381H4.4999V2.00005H29.4999C29.7644 1.99363 30.0165 1.88663 30.2049 1.70084C30.3933 1.51506 30.5038 1.26445 30.5139 1.00005C30.5038 0.735656 30.3933 0.485049 30.2049 0.299261C30.0165 0.113473 29.7644 0.00647426 29.4999 5.23068e-05H3.4999C3.39654 -0.0162386 3.29126 -0.0162386 3.1879 5.23068e-05ZM33.1879 5.23068e-05C32.9821 0.0724021 32.8046 0.208223 32.6809 0.38794C32.5573 0.567658 32.4939 0.781991 32.4999 1.00005V7.00005C32.4999 7.52405 32.9759 8.00005 33.4999 8.00005H39.4999C40.3139 8.02005 40.7999 6.79005 40.1879 6.25005L34.1879 0.250052C34.0584 0.123331 33.8976 0.0333771 33.7218 -0.010561C33.5461 -0.0544991 33.3618 -0.0508358 33.1879 5.23068e-05ZM34.4999 3.37605L37.1259 6.00005H34.4999V3.37605ZM8.4999 6.00005V8.00005H26.4999V6.00005H8.4999ZM8.4999 12.0001V14.0001H34.4999V12.0001H8.4999ZM8.4999 18.0001V20.0001H34.4999V18.0001H8.4999ZM8.4999 24.0001V26.0001H34.4999V24.0001H8.4999ZM8.4999 30.0001V32.0001H34.4999V30.0001H8.4999ZM8.4999 36.0001V38.0001H18.4999V36.0001H8.4999ZM54.8119 51.7501L42.3759 51.8121L29.8759 51.8761C29.8339 51.8734 29.7919 51.8734 29.7499 51.8761C29.7079 51.8734 29.6659 51.8734 29.6239 51.8761C29.4979 51.9561 29.2499 52.1261 29.2499 52.1261L19.3119 57.0601C18.6279 57.3801 18.6279 58.5541 19.3119 58.8741L29.1239 63.6861L29.6239 63.9981H29.8759L42.4359 63.9361L54.6879 63.8721C54.7709 63.8825 54.8549 63.8825 54.9379 63.8721C54.9779 63.8761 55.0199 63.8761 55.0619 63.8721H58.7499C61.3899 63.8721 63.5099 61.6961 63.4999 59.0601V56.5001C63.4899 53.8561 61.3039 51.7401 58.6879 51.7501H54.9379C54.8959 51.7474 54.8539 51.7474 54.8119 51.7501ZM53.8759 53.7501L53.9359 56.9381L30.8759 56.8741V53.8741L42.3759 53.8141L53.8759 53.7501ZM55.8759 53.7501H58.6879C60.2179 53.7501 61.4939 54.9461 61.4999 56.5001V59.0621C61.5059 60.6241 60.3079 61.8761 58.7499 61.8761H55.9379L55.8759 53.7501ZM28.8759 54.5001V61.3121L22.0599 57.9401L28.8759 54.5001ZM30.8759 58.8761L53.9359 58.9361V61.8761L42.4359 61.9361L30.8759 62.0001V58.8761Z" stroke="#25234d" stroke-width="0.6" mask="url(#path-1-outside-1_299_248)"/>
</g>
<defs>
<clipPath id="clip0_299_248">
<rect width="64" height="64" fill="white" transform="translate(0.5)"/>
</clipPath>
</defs>
</svg>
