<svg width="65" height="64" viewBox="0 0 65 64" fill="none" xmlns="http://www.w3.org/2000/svg">
<path d="M56.1067 17.4149L34.1067 5.3699C33.6652 5.12833 33.17 5.00171 32.6667 5.00171C32.1635 5.00171 31.6683 5.12833 31.2267 5.3699L9.22675 17.4149C8.7548 17.6731 8.36097 18.0535 8.08651 18.5162C7.81205 18.9789 7.66707 19.5069 7.66675 20.0449V43.9549C7.66707 44.4929 7.81205 45.0209 8.08651 45.4836C8.36097 45.9463 8.7548 46.3267 9.22675 46.5849L31.2267 58.6299C31.6679 58.8726 32.1632 58.9999 32.6667 58.9999C33.1703 58.9999 33.6656 58.8726 34.1067 58.6299L56.1067 46.5849C56.5787 46.3267 56.9725 45.9463 57.247 45.4836C57.5214 45.0209 57.6664 44.4929 57.6667 43.9549V20.0449C57.6664 19.5069 57.5214 18.9789 57.247 18.5162C56.9725 18.0535 56.5787 17.6731 56.1067 17.4149ZM32.1867 7.1249C32.3335 7.04302 32.4987 7.00003 32.6667 7.00003C32.8348 7.00003 33 7.04302 33.1467 7.1249L54.8342 18.9999L32.6667 31.1299L10.4992 18.9999L32.1867 7.1249ZM10.1867 44.8324C10.0293 44.7463 9.89795 44.6193 9.80646 44.4649C9.71496 44.3106 9.66671 44.1344 9.66675 43.9549V20.8224L31.6667 32.8624V56.5899L10.1867 44.8324ZM55.1467 44.8324L33.6667 56.5824V32.8624L55.6667 20.8224V43.9549C55.6663 44.134 55.6179 44.3096 55.5264 44.4635C55.4349 44.6174 55.3038 44.744 55.1467 44.8299V44.8324Z" fill="#007FFF"/>
</svg>
