<svg width="65" height="64" viewBox="0 0 65 64" fill="none" xmlns="http://www.w3.org/2000/svg">
<path d="M32.75 4.75171C33.295 4.75171 33.8314 4.88862 34.3096 5.15015L56.3096 17.196L56.498 17.3064C56.9261 17.5795 57.2848 17.95 57.5449 18.3884L57.6504 18.5798C57.8796 19.033 57.9997 19.5348 58 20.0447V43.9548L57.9922 44.1726C57.9579 44.6795 57.8051 45.1724 57.5449 45.6111C57.2848 46.0495 56.9261 46.42 56.498 46.6931L56.3096 46.8044L34.3096 58.8484L34.3105 58.8494C33.8325 59.1123 33.2956 59.2498 32.75 59.2498C32.2725 59.2498 31.8016 59.1448 31.3711 58.9421L31.1895 58.8494L9.19043 46.8044C8.67919 46.5247 8.2524 46.1123 7.95508 45.6111C7.65775 45.1098 7.50035 44.5376 7.5 43.9548V20.0447L7.50781 19.8269C7.54217 19.3201 7.69491 18.827 7.95508 18.3884L8.07227 18.2048C8.3601 17.7864 8.7431 17.4408 9.19043 17.196L31.1895 5.15015H31.1904L31.3721 5.05835C31.8026 4.85678 32.2729 4.75171 32.75 4.75171ZM10 43.9548L10.0068 44.0554C10.0202 44.1547 10.0531 44.2509 10.1045 44.3376L10.1621 44.4207C10.2242 44.499 10.3014 44.5647 10.3896 44.613L31.5 56.1677V33.0105L10 21.2439V43.9548ZM34 33.0105V56.1599L54.9805 44.6833V44.6814L55.1104 44.6101C55.2279 44.5457 55.326 44.451 55.3945 44.3357C55.463 44.2204 55.4996 44.0889 55.5 43.9548V21.2439L34 33.0105ZM32.75 7.24976C32.6246 7.24976 32.5011 7.2824 32.3916 7.34351L32.3896 7.34448L11.1025 18.9998L32.75 30.8445L54.3965 18.9998L33.1104 7.34448L33.1084 7.34351C32.9989 7.2824 32.8754 7.24976 32.75 7.24976Z" fill="#007FFF" stroke="#007FFF" stroke-width="0.5"/>
</svg>
