<svg width="366" height="365" viewBox="0 0 366 365" fill="none" xmlns="http://www.w3.org/2000/svg">
<path d="M316.681 99.3199L191.212 30.6257C188.694 29.248 185.87 28.5259 183 28.5259C180.13 28.5259 177.306 29.248 174.787 30.6257L49.3188 99.3199C46.6272 100.793 44.3811 102.962 42.8158 105.601C41.2506 108.24 40.4237 111.251 40.4219 114.319V250.681C40.4237 253.749 41.2506 256.76 42.8158 259.399C44.3811 262.038 46.6272 264.207 49.3188 265.68L174.787 334.374C177.303 335.758 180.128 336.484 183 336.484C185.872 336.484 188.697 335.758 191.212 334.374L316.681 265.68C319.373 264.207 321.619 262.038 323.184 259.399C324.749 256.76 325.576 253.749 325.578 250.681V114.319C325.576 111.251 324.749 108.24 323.184 105.601C321.619 102.962 319.373 100.793 316.681 99.3199ZM180.262 40.6347C181.099 40.1677 182.042 39.9226 183 39.9226C183.958 39.9226 184.901 40.1677 185.738 40.6347L309.424 108.359L183 177.538L56.576 108.359L180.262 40.6347ZM54.7938 255.685C53.8958 255.194 53.1467 254.47 52.6249 253.59C52.1031 252.709 51.8279 251.704 51.8281 250.681V118.753L177.297 187.419V322.74L54.7938 255.685ZM311.206 255.685L188.703 322.697V187.419L314.172 118.753V250.681C314.17 251.702 313.893 252.704 313.371 253.581C312.85 254.459 312.102 255.181 311.206 255.671V255.685Z" fill="#25234D"/>
<path d="M202.999 172.5L298.499 121.5M182 291.5L182 209M46.9991 241L46.9993 158.5" stroke="#007FFF" stroke-width="14"/>
</svg>
