<svg width="65" height="64" viewBox="0 0 65 64" fill="none" xmlns="http://www.w3.org/2000/svg">
<path d="M49.6099 33.5003V18.2103C49.6045 17.1282 49.1884 16.0886 48.4459 15.3016C47.7034 14.5145 46.6898 14.0387 45.6099 13.9703L35.0199 8.12026C34.7529 7.77185 34.4092 7.48958 34.0156 7.29531C33.6219 7.10105 33.1889 7 32.7499 7C32.3109 7 31.8778 7.10105 31.4842 7.29531C31.0906 7.48958 30.7469 7.77185 30.4799 8.12026L19.8399 14.0003C18.7689 14.0807 17.7676 14.5618 17.0356 15.3476C16.3035 16.1335 15.8944 17.1663 15.8899 18.2403V33.5003C15.8925 34.6319 16.3433 35.7165 17.1435 36.5167C17.9437 37.3169 19.0282 37.7676 20.1599 37.7703H45.3399C46.4716 37.7676 47.5561 37.3169 48.3563 36.5167C49.1565 35.7165 49.6073 34.6319 49.6099 33.5003ZM32.7499 12.7803C33.376 12.7792 33.9847 12.5734 34.483 12.1943C34.9813 11.8151 35.3419 11.2834 35.5099 10.6803L41.4499 13.9403H24.0499L29.9899 10.6803C30.1579 11.2834 30.5185 11.8151 31.0168 12.1943C31.5151 12.5734 32.1238 12.7792 32.7499 12.7803ZM33.6399 9.89026C33.6399 10.0663 33.5877 10.2384 33.4899 10.3847C33.3921 10.5311 33.2531 10.6451 33.0905 10.7125C32.9279 10.7799 32.7489 10.7975 32.5763 10.7632C32.4036 10.7288 32.245 10.6441 32.1206 10.5196C31.9961 10.3951 31.9113 10.2365 31.877 10.0639C31.8427 9.89125 31.8603 9.7123 31.9276 9.54967C31.995 9.38704 32.1091 9.24804 32.2554 9.15025C32.4018 9.05246 32.5739 9.00026 32.7499 9.00026C32.9859 9.00026 33.2123 9.09403 33.3792 9.26093C33.5461 9.42784 33.6399 9.65422 33.6399 9.89026ZM17.8899 33.5003V18.2103C17.8899 17.6082 18.1291 17.0308 18.5548 16.6051C18.9805 16.1794 19.5579 15.9403 20.1599 15.9403H45.3399C45.9419 15.9403 46.5193 16.1794 46.945 16.6051C47.3707 17.0308 47.6099 17.6082 47.6099 18.2103V33.5003C47.6099 34.1023 47.3707 34.6797 46.945 35.1054C46.5193 35.5311 45.9419 35.7703 45.3399 35.7703H20.1599C19.5579 35.7703 18.9805 35.5311 18.5548 35.1054C18.1291 34.6797 17.8899 34.1023 17.8899 33.5003Z" fill="#25234d"/>
<path d="M46.19 33.3503V18.3503C46.19 18.0851 46.0846 17.8308 45.8971 17.6432C45.7096 17.4557 45.4552 17.3503 45.19 17.3503H20.31C20.0448 17.3503 19.7904 17.4557 19.6029 17.6432C19.4154 17.8308 19.31 18.0851 19.31 18.3503V33.3503C19.31 33.6156 19.4154 33.8699 19.6029 34.0574C19.7904 34.245 20.0448 34.3503 20.31 34.3503H45.19C45.4552 34.3503 45.7096 34.245 45.8971 34.0574C46.0846 33.8699 46.19 33.6156 46.19 33.3503ZM44.19 32.3503H21.31V19.3503H44.19V32.3503ZM53.41 35.9203C52.5272 35.9169 51.6645 36.1839 50.9381 36.6856C50.2116 37.1873 49.6563 37.8995 49.347 38.7264C49.0376 39.5532 48.9889 40.455 49.2076 41.3103C49.4263 42.1656 49.9017 42.9334 50.57 43.5103V45.8103C44.7156 47.0666 38.7369 47.6504 32.75 47.5503C26.7634 47.6443 20.7854 47.0606 14.93 45.8103V43.5103C15.5992 42.9312 16.0754 42.1613 16.2947 41.3039C16.514 40.4465 16.4659 39.5425 16.1568 38.7132C15.8478 37.8839 15.2927 37.1689 14.5658 36.664C13.8389 36.1591 12.975 35.8886 12.09 35.8886C11.205 35.8886 10.3411 36.1591 9.61423 36.664C8.88734 37.1689 8.33217 37.8839 8.02315 38.7132C7.71414 39.5425 7.66605 40.4465 7.88533 41.3039C8.10461 42.1613 8.58078 42.9312 9.25 43.5103V54.1603C9.25 54.9136 9.54921 55.6359 10.0818 56.1685C10.6144 56.7011 11.3368 57.0003 12.09 57.0003C12.8432 57.0003 13.5656 56.7011 14.0982 56.1685C14.6308 55.6359 14.93 54.9136 14.93 54.1603V52.2703C20.8023 53.3936 26.7714 53.9329 32.75 53.8803C38.7286 53.9329 44.6977 53.3936 50.57 52.2703V54.1603C50.57 54.9136 50.8692 55.6359 51.4018 56.1685C51.9344 56.7011 52.6568 57.0003 53.41 57.0003C54.1632 57.0003 54.8856 56.7011 55.4182 56.1685C55.9508 55.6359 56.25 54.9136 56.25 54.1603V43.5103C56.9183 42.9334 57.3937 42.1656 57.6124 41.3103C57.8311 40.455 57.7824 39.5532 57.473 38.7264C57.1637 37.8995 56.6084 37.1873 55.8819 36.6856C55.1555 36.1839 54.2928 35.9169 53.41 35.9203ZM53.41 37.9203C53.8732 37.9203 54.326 38.0578 54.7111 38.3154C55.0961 38.573 55.396 38.939 55.5728 39.3672C55.7496 39.7953 55.7954 40.2664 55.7043 40.7205C55.6132 41.1747 55.3893 41.5917 55.0611 41.9185C54.7328 42.2454 54.3149 42.4674 53.8604 42.5566C53.4058 42.6458 52.935 42.598 52.5076 42.4193C52.0802 42.2407 51.7154 41.9392 51.4595 41.5531C51.2036 41.167 51.068 40.7136 51.07 40.2503C51.07 39.9435 51.1306 39.6397 51.2483 39.3564C51.366 39.073 51.5386 38.8157 51.756 38.5992C51.9734 38.3827 52.2314 38.2113 52.5153 38.0948C52.7991 37.9783 53.1032 37.919 53.41 37.9203ZM12.09 37.9203C12.5532 37.9203 13.006 38.0578 13.3911 38.3154C13.7761 38.573 14.076 38.939 14.2528 39.3672C14.4296 39.7953 14.4754 40.2664 14.3843 40.7205C14.2932 41.1747 14.0693 41.5917 13.7411 41.9185C13.4128 42.2454 12.9949 42.4674 12.5404 42.5566C12.0858 42.6458 11.615 42.598 11.1876 42.4193C10.7602 42.2407 10.3954 41.9392 10.1395 41.5531C9.88358 41.167 9.74802 40.7136 9.75 40.2503C9.75 39.9435 9.81059 39.6397 9.92831 39.3564C10.046 39.073 10.2186 38.8157 10.436 38.5992C10.6534 38.3827 10.9114 38.2113 11.1953 38.0948C11.4791 37.9783 11.7832 37.919 12.09 37.9203ZM12.09 55.0003C11.9793 55.0017 11.8695 54.9809 11.767 54.9391C11.6644 54.8974 11.5713 54.8356 11.493 54.7573C11.4148 54.679 11.3529 54.5859 11.3112 54.4834C11.2695 54.3809 11.2487 54.271 11.25 54.1603V44.5103C11.8049 44.617 12.3751 44.617 12.93 44.5103V54.1603C12.9274 54.3823 12.8381 54.5945 12.6811 54.7514C12.5241 54.9084 12.312 54.9977 12.09 55.0003ZM32.75 51.8803C26.7692 51.9404 20.7981 51.3875 14.93 50.2303V47.8603C20.7911 49.0683 26.7663 49.635 32.75 49.5503C38.7337 49.635 44.7089 49.0683 50.57 47.8603V50.2303C44.7019 51.3875 38.7308 51.9404 32.75 51.8803ZM54.25 54.1603C54.2513 54.271 54.2305 54.3809 54.1888 54.4834C54.1471 54.5859 54.0852 54.679 54.007 54.7573C53.9287 54.8356 53.8356 54.8974 53.733 54.9391C53.6305 54.9809 53.5207 55.0017 53.41 55.0003C53.188 54.9977 52.9759 54.9084 52.8189 54.7514C52.6619 54.5945 52.5726 54.3823 52.57 54.1603C52.57 51.1603 52.57 52.3203 52.57 44.5103C53.1249 44.617 53.6951 44.617 54.25 44.5103V54.1603Z" fill="#25234d"/>
<path d="M31.35 30.7802C32.1214 30.7778 32.8843 30.6187 33.5925 30.3128C34.3007 30.0068 34.9394 29.5603 35.47 29.0002L36.67 29.6902C36.7841 29.7563 36.9102 29.7992 37.041 29.8164C37.1717 29.8336 37.3046 29.8247 37.432 29.7903C37.5593 29.756 37.6786 29.6967 37.7829 29.616C37.8873 29.5353 37.9746 29.4348 38.04 29.3202C38.158 29.0945 38.1855 28.8322 38.1167 28.5868C38.048 28.3415 37.8882 28.1317 37.67 28.0002L36.6 27.3702C36.9211 26.6423 37.0879 25.8558 37.09 25.0602C37.0868 24.6437 37.0433 24.2284 36.96 23.8202C36.49 21.6802 35.08 20.8202 33.96 20.9502C33.5004 20.9981 33.0762 21.219 32.7735 21.5682C32.4708 21.9173 32.3122 22.3685 32.33 22.8302C32.3239 23.461 32.1588 24.0801 31.85 24.6302L30.37 23.7802C30.1414 23.6607 29.8755 23.634 29.6278 23.7059C29.3801 23.7778 29.1697 23.9426 29.0407 24.1659C28.9116 24.3892 28.8738 24.6537 28.9351 24.9042C28.9965 25.1547 29.1523 25.3719 29.37 25.5102L30.37 26.0902C29.8233 26.3987 29.2076 26.5638 28.58 26.5702C28.4112 26.5674 28.2435 26.599 28.0874 26.6632C27.9312 26.7274 27.7898 26.8228 27.6719 26.9436C27.5539 27.0644 27.4618 27.208 27.4013 27.3656C27.3408 27.5232 27.3131 27.6915 27.32 27.8602C27.32 29.0502 28.75 30.7802 31.35 30.7802ZM34.35 22.9802C34.7206 23.3035 34.9592 23.7521 35.02 24.2402C35.0806 24.5059 35.1108 24.7777 35.11 25.0502C35.1042 25.4949 35.0195 25.9351 34.86 26.3502L33.61 25.6302C34.0552 24.8231 34.302 23.9216 34.33 23.0002L34.35 22.9802ZM32.35 27.1902L33.65 28.0002C32.9961 28.521 32.1859 28.8063 31.35 28.8102C30.8414 28.8265 30.3386 28.6982 29.9 28.4402C30.7856 28.2219 31.6054 27.7931 32.29 27.1902H32.35ZM24.75 39.2702C24.3127 39.2458 23.875 39.3109 23.4637 39.4614C23.0525 39.612 22.6762 39.8448 22.358 40.1458C22.0398 40.4467 21.7864 40.8094 21.6132 41.2117C21.4399 41.6139 21.3506 42.0473 21.3506 42.4852C21.3506 42.9232 21.4399 43.3565 21.6132 43.7588C21.7864 44.161 22.0398 44.5237 22.358 44.8247C22.6762 45.1256 23.0525 45.3585 23.4637 45.509C23.875 45.6596 24.3127 45.7246 24.75 45.7002H40.75C41.1872 45.7246 41.6249 45.6596 42.0362 45.509C42.4475 45.3585 42.8237 45.1256 43.1419 44.8247C43.4601 44.5237 43.7135 44.161 43.8868 43.7588C44.06 43.3565 44.1493 42.9232 44.1493 42.4852C44.1493 42.0473 44.06 41.6139 43.8868 41.2117C43.7135 40.8094 43.4601 40.4467 43.1419 40.1458C42.8237 39.8448 42.4475 39.612 42.0362 39.4614C41.6249 39.3109 41.1872 39.2458 40.75 39.2702H24.75ZM41.95 42.4902C41.9474 42.8086 41.8205 43.1134 41.5962 43.3395C41.372 43.5655 41.0683 43.695 40.75 43.7002H24.75C24.5811 43.7156 24.411 43.6955 24.2503 43.6414C24.0897 43.5874 23.9421 43.5004 23.8169 43.3861C23.6917 43.2717 23.5917 43.1326 23.5233 42.9775C23.4549 42.8224 23.4196 42.6547 23.4196 42.4852C23.4196 42.3157 23.4549 42.1481 23.5233 41.993C23.5917 41.8378 23.6917 41.6987 23.8169 41.5844C23.9421 41.4701 24.0897 41.3831 24.2503 41.329C24.411 41.2749 24.5811 41.2549 24.75 41.2702H40.75C41.07 41.2755 41.3752 41.4063 41.5997 41.6345C41.8242 41.8628 41.95 42.1701 41.95 42.4902Z" fill="#25234d"/>
</svg>
