<svg width="57" height="60" viewBox="0 0 57 60" fill="none" xmlns="http://www.w3.org/2000/svg">
<path fill-rule="evenodd" clip-rule="evenodd" d="M26.0399 49.9337C25.4042 49.8027 24.8137 49.4892 24.3498 49.0232C23.7249 48.3982 23.3726 47.5499 23.3726 46.6673V25.3333C23.3726 24.4485 23.7249 23.6023 24.3498 22.9753C24.9747 22.3503 25.823 22.0003 26.7057 22.0003H28.0393C28.9241 22.0003 29.7724 22.3503 30.3974 22.9753C31.0223 23.6023 31.3723 24.4485 31.3723 25.3333V46.6673C31.3723 47.5499 31.0223 48.3982 30.3974 49.0232C29.9313 49.4892 29.3408 49.8027 28.7051 49.9337V58C28.7051 58.7366 28.108 59.3337 27.3736 59.3337C26.6369 59.3337 26.0399 58.7366 26.0399 58V49.9337ZM26.7057 47.333H28.0393C28.2154 47.333 28.3851 47.2622 28.5118 47.1376C28.6363 47.013 28.7051 46.8434 28.7051 46.6673V25.3333C28.7051 25.1572 28.6363 24.9875 28.5118 24.8608C28.3851 24.7363 28.2154 24.6675 28.0393 24.6675H26.7057C26.5296 24.6675 26.3599 24.7363 26.2353 24.8608C26.1086 24.9875 26.0399 25.1572 26.0399 25.3333V46.6673C26.0399 46.8434 26.1086 47.013 26.2353 47.1376C26.3599 47.2622 26.5296 47.333 26.7057 47.333ZM52.1093 1.05712L53.8209 2.76874L55.9771 3.8683C56.6342 4.20118 56.8941 5.00437 56.5612 5.66152L55.4617 7.81768L55.0837 10.2079C54.9677 10.936 54.2848 11.432 53.5568 11.3161L51.1665 10.9381L48.7763 11.3161C48.0483 11.432 47.3653 10.936 47.2515 10.2079L46.8714 7.81768L45.774 5.66152C45.439 5.00437 45.6988 4.20118 46.356 3.8683L48.5121 2.76874L50.2237 1.05712C50.7456 0.537404 51.5896 0.537404 52.1093 1.05712ZM51.1665 3.88547L50.2495 4.80464C50.1507 4.90343 50.0369 4.98503 49.9124 5.04946L48.7548 5.6379L49.3433 6.79544C49.4077 6.92 49.4506 7.05315 49.4721 7.19274L49.6761 8.47484L50.9582 8.27082C51.0957 8.24934 51.2374 8.24934 51.3749 8.27082L52.657 8.47484L52.861 7.19274C52.8825 7.05315 52.9276 6.92 52.9898 6.79544L53.5804 5.6379L52.4229 5.04946C52.2983 4.98503 52.1845 4.90343 52.0857 4.80464L51.1665 3.88547ZM14.7759 42.3915L16.4875 44.1031L18.6437 45.2005C19.3008 45.5355 19.5607 46.3387 19.2278 46.9937L18.1283 49.152L17.7503 51.5423C17.6343 52.2703 16.9514 52.7664 16.2234 52.6504L13.8331 52.2724L11.4429 52.6504C10.7148 52.7664 10.0319 52.2703 9.9181 51.5423L9.53798 49.152L8.44056 46.9937C8.10554 46.3387 8.36539 45.5355 9.02255 45.2005L11.1787 44.1031L12.8903 42.3915C13.4122 41.8696 14.2562 41.8696 14.7759 42.3915ZM13.8331 45.2198L12.9161 46.1368C12.8173 46.2356 12.7035 46.3194 12.5789 46.3817L11.4214 46.9722L12.0098 48.1276C12.0743 48.2543 12.1172 48.3875 12.1387 48.5249L12.3427 49.807L13.6248 49.6052C13.7623 49.5837 13.904 49.5837 14.0414 49.6052L15.3235 49.807L15.5276 48.5249C15.549 48.3875 15.5941 48.2543 15.6564 48.1276L16.247 46.9722L15.0894 46.3817C14.9649 46.3194 14.8511 46.2356 14.7523 46.1368L13.8331 45.2198ZM41.6485 39.7242L43.3601 41.4358L45.5163 42.5354C46.1734 42.8682 46.4333 43.6714 46.1004 44.3286L45.0009 46.4847L44.6229 48.875C44.5069 49.603 43.824 50.0991 43.0959 49.9831L40.7057 49.6052L38.3154 49.9831C37.5874 50.0991 36.9045 49.603 36.7907 48.875L36.4106 46.4847L35.3132 44.3286C34.9781 43.6714 35.238 42.8682 35.8951 42.5354L38.0513 41.4358L39.7629 39.7242C40.2848 39.2023 41.1288 39.2023 41.6485 39.7242ZM40.7057 42.5525L39.7887 43.4695C39.6899 43.5683 39.5761 43.6521 39.4515 43.7165L38.294 44.3049L38.8824 45.4625C38.9468 45.5871 38.9898 45.7202 39.0113 45.8598L39.2153 47.1419L40.4974 46.9379C40.6348 46.9164 40.7766 46.9164 40.914 46.9379L42.1961 47.1419L42.4002 45.8598C42.4216 45.7202 42.4667 45.5871 42.529 45.4625L43.1196 44.3049L41.962 43.7165C41.8375 43.6521 41.7236 43.5683 41.6249 43.4695L40.7057 42.5525ZM6.98236 1.05712L8.69397 2.76874L10.8501 3.8683C11.5073 4.20118 11.7671 5.00437 11.4343 5.66152L10.3347 7.81768L9.95674 10.2079C9.84077 10.936 9.15784 11.432 8.42982 11.3161L6.03959 10.9381L3.64932 11.3161C2.92129 11.432 2.23837 10.936 2.1224 10.2079L1.74444 7.81768L0.644862 5.66152C0.311988 5.00437 0.571851 4.20118 1.22901 3.8683L3.38517 2.76874L5.09678 1.05712C5.61649 0.537404 6.4605 0.537404 6.98236 1.05712ZM6.03959 3.88547L5.1204 4.80464C5.02162 4.90343 4.9078 4.98503 4.78324 5.04946L3.62786 5.6379L4.2163 6.79544C4.28072 6.92 4.32367 7.05315 4.34515 7.19274L4.54917 8.47484L5.83127 8.27082C5.96872 8.24934 6.11046 8.24934 6.2479 8.27082L7.53 8.47484L7.73402 7.19274C7.7555 7.05315 7.79845 6.92 7.86287 6.79544L8.45131 5.6379L7.2959 5.04946C7.17134 4.98503 7.05754 4.90343 6.9566 4.80464L6.03959 3.88547ZM2.03864 28.6663C1.30417 28.6663 0.704994 28.0693 0.704994 27.3327C0.704994 26.5982 1.30417 25.999 2.03864 25.999H7.37323C8.1077 25.999 8.70685 26.5982 8.70685 27.3327C8.70685 28.0693 8.1077 28.6663 7.37323 28.6663H2.03864ZM12.7056 28.6663C11.9712 28.6663 11.372 28.0693 11.372 27.3327C11.372 26.5982 11.9712 25.999 12.7056 25.999H18.0402C18.7747 25.999 19.3717 26.5982 19.3717 27.3327C19.3717 28.0693 18.7747 28.6663 18.0402 28.6663H12.7056ZM4.76607 15.8217C4.13039 15.4523 3.91132 14.6362 4.27856 14.0005C4.64579 13.3627 5.46189 13.1437 6.09972 13.5109L10.7191 16.1782C11.357 16.5476 11.5739 17.3636 11.2066 17.9993C10.8394 18.6371 10.0233 18.8562 9.3855 18.489L4.76607 15.8217ZM14.0049 21.1541C13.3671 20.7869 13.148 19.9708 13.5174 19.333C13.8847 18.6951 14.7008 18.4782 15.3386 18.8455L19.9559 21.5128C20.5937 21.88 20.8127 22.6961 20.4455 23.3339C20.0761 23.9696 19.26 24.1886 18.6222 23.8214L14.0049 21.1541ZM13.5518 6.06097C13.1824 5.42314 13.4014 4.60706 14.0393 4.23982C14.6771 3.87044 15.4932 4.08949 15.8604 4.72732L18.5277 9.34675C18.8949 9.98243 18.6759 10.7985 18.0402 11.1679C17.4024 11.5351 16.5863 11.3161 16.2191 10.6804L13.5518 6.06097ZM18.8842 15.2977C18.517 14.662 18.736 13.8438 19.3717 13.4765C20.0095 13.1093 20.8256 13.3284 21.195 13.964L23.8601 18.5835C24.2295 19.2213 24.0105 20.0374 23.3726 20.4046C22.7348 20.774 21.9187 20.5549 21.5515 19.9171L18.8842 15.2977ZM26.0399 1.99991C26.0399 1.26329 26.6369 0.66626 27.3736 0.66626C28.108 0.66626 28.7051 1.26329 28.7051 1.99991V7.33234C28.7051 8.06895 28.108 8.66597 27.3736 8.66597C26.6369 8.66597 26.0399 8.06895 26.0399 7.33234V1.99991ZM26.0399 12.6669C26.0399 11.9303 26.6369 11.3333 27.3736 11.3333C28.108 11.3333 28.7051 11.9303 28.7051 12.6669V17.9993C28.7051 18.7359 28.108 19.333 27.3736 19.333C26.6369 19.333 26.0399 18.7359 26.0399 17.9993V12.6669ZM38.8846 4.72732C39.2518 4.08949 40.0679 3.87044 40.7057 4.23982C41.3435 4.60706 41.5626 5.42314 41.1932 6.06097L38.5281 10.6804C38.1587 11.3161 37.3426 11.5351 36.7069 11.1679C36.0691 10.7985 35.8501 9.98243 36.2173 9.34675L38.8846 4.72732ZM33.5521 13.964C33.9194 13.3284 34.7355 13.1093 35.3733 13.4765C36.0111 13.8438 36.228 14.662 35.8608 15.2977L33.1935 19.9171C32.8263 20.5549 32.0102 20.774 31.3723 20.4046C30.7345 20.0374 30.5176 19.2213 30.8849 18.5835L33.5521 13.964ZM48.6453 13.5109C49.2831 13.1437 50.0992 13.3627 50.4664 14.0005C50.8358 14.6362 50.6167 15.4523 49.9789 15.8217L45.3595 18.489C44.7217 18.8562 43.9056 18.6371 43.5384 17.9993C43.1711 17.3636 43.3902 16.5476 44.0258 16.1782L48.6453 13.5109ZM39.4086 18.8455C40.0443 18.4782 40.8603 18.6951 41.2297 19.333C41.597 19.9708 41.3779 20.7869 40.7422 21.1541L36.1228 23.8214C35.485 24.1886 34.6689 23.9696 34.3016 23.3339C33.9322 22.6961 34.1513 21.88 34.7891 21.5128L39.4086 18.8455ZM52.7063 25.999C53.443 25.999 54.04 26.5982 54.04 27.3327C54.04 28.0693 53.443 28.6663 52.7063 28.6663H47.3718C46.6373 28.6663 46.0403 28.0693 46.0403 27.3327C46.0403 26.5982 46.6373 25.999 47.3718 25.999H52.7063ZM42.0394 25.999C42.776 25.999 43.373 26.5982 43.373 27.3327C43.373 28.0693 42.776 28.6663 42.0394 28.6663H36.7069C35.9703 28.6663 35.3733 28.0693 35.3733 27.3327C35.3733 26.5982 35.9703 25.999 36.7069 25.999H42.0394ZM49.9789 38.8458C50.6167 39.2131 50.8358 40.0291 50.4664 40.667C50.0992 41.3048 49.2831 41.5217 48.6453 41.1545L44.0258 38.4872C43.3902 38.1199 43.1711 37.3039 43.5384 36.666C43.9056 36.0303 44.7217 35.8113 45.3595 36.1785L49.9789 38.8458ZM40.7422 33.5112C41.3779 33.8806 41.597 34.6967 41.2297 35.3324C40.8603 35.9702 40.0443 36.1893 39.4086 35.822L34.7891 33.1548C34.1513 32.7875 33.9322 31.9714 34.3016 31.3336C34.6689 30.6958 35.485 30.4767 36.1228 30.8461L40.7422 33.5112ZM6.09972 41.1545C5.46189 41.5217 4.64579 41.3048 4.27856 40.667C3.91132 40.0291 4.13039 39.2131 4.76607 38.8458L9.3855 36.1785C10.0233 35.8113 10.8394 36.0303 11.2066 36.666C11.5739 37.3039 11.357 38.1199 10.7191 38.4872L6.09972 41.1545ZM15.3386 35.822C14.7008 36.1893 13.8847 35.9702 13.5174 35.3324C13.148 34.6967 13.3671 33.8806 14.0049 33.5112L18.6222 30.8461C19.26 30.4767 20.0761 30.6958 20.4455 31.3336C20.8127 31.9714 20.5937 32.7875 19.9559 33.1548L15.3386 35.822Z" fill="#25234d"/>
</svg>
