<svg width="86" height="98" viewBox="0 0 86 98" fill="none" xmlns="http://www.w3.org/2000/svg">
<mask id="mask0_4_372" style="mask-type:luminance" maskUnits="userSpaceOnUse" x="5" y="26" width="23" height="15">
<path d="M14.9533 26.9467L13.9832 27.0165C12.4153 27.1734 10.9017 27.6764 9.5517 28.489C8.84944 28.9139 8.21043 29.4354 7.65348 30.0383C7.17397 30.5446 6.7676 31.1154 6.44615 31.7341C6.15469 32.411 6.00277 33.1397 5.99951 33.8766V34.0581C6.22744 35.9844 7.16983 37.7552 8.64036 39.0203C10.1109 40.2853 12.0025 40.9527 13.9414 40.8903C12.3824 40.7417 10.9177 40.0766 9.7798 39.0007C8.6419 37.9248 7.896 36.4996 7.66046 34.9513V34.7699C7.68421 33.4901 8.19889 32.2683 9.09809 31.3573C9.53764 30.8885 10.0375 30.4802 10.5846 30.143C11.9238 29.3513 13.4466 28.9231 15.0021 28.9008H26.6078C26.8518 28.8801 27.0791 28.7686 27.2448 28.5883C27.4104 28.408 27.5024 28.1721 27.5024 27.9272C27.5024 27.6824 27.4104 27.4465 27.2448 27.2662C27.0791 27.0859 26.8518 26.9744 26.6078 26.9537L14.9533 26.9467Z" fill="white"/>
</mask>
<g mask="url(#mask0_4_372)">
<path d="M18.0111 16.2373L-0.929688 33.1545L15.583 51.6424L34.5238 34.7253L18.0111 16.2373Z" fill="url(#paint0_linear_4_372)"/>
</g>
<mask id="mask1_4_372" style="mask-type:luminance" maskUnits="userSpaceOnUse" x="5" y="54" width="44" height="15">
<path d="M15.1277 54.5617C13.522 54.5592 11.9346 54.9019 10.4729 55.5666C9.40214 56.061 8.43387 56.7523 7.61858 57.6044C7.16496 58.0823 6.77554 58.6172 6.46011 59.1956C6.16275 59.8785 6.00609 60.6143 5.99951 61.359C5.99951 64.8484 9.27255 67.7306 13.4947 68.1284C10.11 67.5422 7.56973 65.1904 7.56973 62.3849C7.5927 61.0892 8.11819 59.853 9.03528 58.9374C9.67502 58.2607 10.4407 57.7155 11.2894 57.3323C12.4938 56.7813 13.8033 56.498 15.1277 56.5018H47.6139L47.6697 56.425L48.898 54.5617H15.1277Z" fill="white"/>
</mask>
<g mask="url(#mask1_4_372)">
<path d="M44.3183 41.3301L1.8125 56.0158L10.5729 81.3715L53.0786 66.6858L44.3183 41.3301Z" fill="url(#paint1_linear_4_372)"/>
</g>
<mask id="mask2_4_372" style="mask-type:luminance" maskUnits="userSpaceOnUse" x="0" y="89" width="7" height="9">
<path d="M2.32886 89.6928C2.01958 89.6917 1.71329 89.7534 1.42859 89.8743C1.16909 89.9919 0.93274 90.1549 0.730718 90.3558C0.519015 90.5548 0.346251 90.7914 0.22127 91.0537C0.100323 91.3285 0.0384965 91.6258 0.0398156 91.926V94.8292C0.0393598 95.1317 0.101129 95.431 0.22127 95.7085C0.344497 95.9718 0.517488 96.2088 0.730718 96.4064C0.942462 96.626 1.19608 96.8008 1.47657 96.9207C1.75706 97.0406 2.05872 97.103 2.36375 97.1043H6.36956C6.43906 97.1069 6.50835 97.0952 6.57316 97.07C6.63797 97.0448 6.69693 97.0066 6.74641 96.9577C6.79408 96.9088 6.83159 96.851 6.85675 96.7875C6.8819 96.724 6.89421 96.6561 6.89297 96.5879C6.89495 96.5189 6.88271 96.4503 6.85701 96.3863C6.83132 96.3223 6.79271 96.2642 6.74361 96.2158C6.69451 96.1673 6.63597 96.1295 6.57161 96.1047C6.50726 96.0798 6.43848 96.0685 6.36956 96.0714H2.35677C2.18722 96.0744 2.01878 96.0435 1.86127 95.9807C1.71139 95.9207 1.57411 95.8331 1.45652 95.7225C1.33922 95.6092 1.24552 95.4737 1.18084 95.324C1.11616 95.1743 1.08177 95.0132 1.07966 94.8501V93.915H6.36956C6.43972 93.918 6.5097 93.9058 6.57473 93.8793C6.63977 93.8528 6.69832 93.8126 6.74641 93.7615C6.79388 93.7139 6.83131 93.6572 6.85648 93.5949C6.88165 93.5325 6.89406 93.4658 6.89297 93.3986C6.89543 93.3301 6.88367 93.2619 6.85845 93.1983C6.83322 93.1346 6.79507 93.0769 6.74641 93.0287C6.69693 92.9798 6.63797 92.9416 6.57316 92.9164C6.50835 92.8912 6.43906 92.8795 6.36956 92.8821H1.07966V91.94C1.07859 91.776 1.11437 91.6138 1.18434 91.4654C1.24733 91.3199 1.34003 91.1892 1.45652 91.0816C1.57411 90.971 1.71139 90.8834 1.86127 90.8234C2.01878 90.7606 2.18722 90.7297 2.35677 90.7327H6.36956C6.43882 90.7346 6.50774 90.7224 6.57211 90.6967C6.63649 90.6711 6.69496 90.6327 6.74395 90.5837C6.79295 90.5347 6.83143 90.4762 6.85705 90.4118C6.88268 90.3474 6.8949 90.2785 6.89297 90.2093C6.89495 90.1403 6.88271 90.0717 6.85701 90.0077C6.83132 89.9437 6.79271 89.8856 6.74361 89.8372C6.69451 89.7887 6.63597 89.7509 6.57161 89.7261C6.50726 89.7013 6.43848 89.6899 6.36956 89.6928H2.32886Z" fill="white"/>
</mask>
<g mask="url(#mask2_4_372)">
<path d="M6.86501 89.6928H0.00488281V97.0973H6.86501V89.6928Z" fill="url(#paint2_linear_4_372)"/>
</g>
<mask id="mask3_4_372" style="mask-type:luminance" maskUnits="userSpaceOnUse" x="7" y="89" width="9" height="9">
<path d="M15.0581 89.644C14.9584 89.6374 14.8591 89.663 14.775 89.717C14.6908 89.771 14.6262 89.8506 14.5906 89.9441L11.6734 95.9039L8.65162 89.9301C8.61264 89.8403 8.54683 89.7647 8.4632 89.7138C8.37761 89.6671 8.28153 89.6431 8.18405 89.644C8.09467 89.6424 8.00642 89.6641 7.92793 89.7069C7.84944 89.7497 7.78341 89.8121 7.73628 89.8881C7.68916 89.964 7.66255 90.0509 7.65908 90.1403C7.65561 90.2296 7.67538 90.3183 7.71647 90.3977L11.1151 97.1113H12.2527L15.5466 90.3837C15.5945 90.3087 15.6199 90.2215 15.6199 90.1325C15.6199 90.0435 15.5945 89.9563 15.5466 89.8813C15.4993 89.8062 15.4332 89.7449 15.3549 89.7033C15.2765 89.6617 15.1887 89.6412 15.1 89.644H15.0581Z" fill="white"/>
</mask>
<g mask="url(#mask3_4_372)">
<path d="M15.6374 89.637H7.62573V97.1112H15.6374V89.637Z" fill="url(#paint3_linear_4_372)"/>
</g>
<mask id="mask4_4_372" style="mask-type:luminance" maskUnits="userSpaceOnUse" x="16" y="89" width="8" height="9">
<path d="M18.7148 89.6928C18.4033 89.6917 18.0947 89.7534 17.8076 89.8743C17.5327 89.9863 17.2816 90.1498 17.0678 90.3558C16.8624 90.5571 16.6946 90.7934 16.5723 91.0537C16.4514 91.3285 16.3896 91.6257 16.3909 91.926V94.8292C16.3904 95.1316 16.4522 95.431 16.5723 95.7085C16.693 95.9697 16.861 96.2063 17.0678 96.4064C17.2794 96.6169 17.5309 96.783 17.8076 96.8949C18.0952 97.0136 18.4038 97.0729 18.7148 97.0694H22.7276C22.7951 97.0821 22.8644 97.0812 22.9315 97.0668C22.9986 97.0525 23.0621 97.0249 23.1184 96.9856C23.1684 96.9381 23.2078 96.8806 23.2342 96.8169C23.2607 96.7532 23.2735 96.6847 23.272 96.6158C23.2744 96.5467 23.262 96.4779 23.2355 96.4141C23.209 96.3503 23.1691 96.2929 23.1184 96.2459C23.0695 96.1982 23.0117 96.1607 22.9482 96.1356C22.8847 96.1104 22.8168 96.0981 22.7486 96.0993H18.7358C18.5662 96.1029 18.3976 96.072 18.2403 96.0086C17.9318 95.8917 17.6814 95.6587 17.5424 95.3596C17.4786 95.207 17.4454 95.0434 17.4447 94.878V93.915H22.7346C22.8036 93.9165 22.8721 93.9037 22.9357 93.8772C22.9994 93.8508 23.0569 93.8114 23.1045 93.7614C23.1542 93.7152 23.1936 93.6589 23.2201 93.5964C23.2465 93.5339 23.2595 93.4664 23.258 93.3985C23.2609 93.3294 23.2487 93.2605 23.2222 93.1966C23.1957 93.1327 23.1555 93.0754 23.1045 93.0287C23.0556 92.981 22.9977 92.9435 22.9342 92.9183C22.8707 92.8932 22.8029 92.8809 22.7346 92.8821H17.4447V91.94C17.4447 91.7768 17.4779 91.6153 17.5424 91.4654C17.6104 91.321 17.7051 91.1908 17.8216 91.0816C17.9391 90.971 18.0764 90.8834 18.2263 90.8234C18.3837 90.76 18.5522 90.7291 18.7218 90.7327H22.7346C22.8734 90.7325 23.0064 90.6773 23.1045 90.5791C23.1544 90.5315 23.1938 90.4741 23.2203 90.4104C23.2467 90.3467 23.2596 90.2782 23.258 90.2092C23.2605 90.1402 23.248 90.0714 23.2215 90.0076C23.195 89.9438 23.1551 89.8864 23.1045 89.8394C23.0556 89.7917 22.9977 89.7542 22.9342 89.7291C22.8707 89.7039 22.8029 89.6916 22.7346 89.6928H18.7148Z" fill="white"/>
</mask>
<g mask="url(#mask4_4_372)">
<path d="M23.251 89.6929H16.3909V97.0973H23.251V89.6929Z" fill="url(#paint4_linear_4_372)"/>
</g>
<mask id="mask5_4_372" style="mask-type:luminance" maskUnits="userSpaceOnUse" x="24" y="89" width="8" height="9">
<path d="M30.6069 89.7905C30.5555 89.837 30.5151 89.8942 30.4886 89.9582C30.462 90.0222 30.45 90.0912 30.4534 90.1604V95.3107L26.0986 89.9441C26.0272 89.8561 25.9382 89.7841 25.8372 89.7327C25.7362 89.6814 25.6255 89.6518 25.5124 89.6459C25.3993 89.6399 25.2861 89.6578 25.1804 89.6984C25.0746 89.7389 24.9785 89.8012 24.8983 89.8813C24.8235 89.9538 24.764 90.0406 24.7233 90.1364C24.6825 90.2323 24.6613 90.3354 24.661 90.4395V96.5948C24.6596 96.6627 24.6725 96.7302 24.6989 96.7927C24.7254 96.8552 24.7648 96.9115 24.8145 96.9577C24.8616 97.0089 24.9188 97.0498 24.9824 97.0777C25.0461 97.1057 25.1149 97.1201 25.1844 97.1201C25.2539 97.1201 25.3227 97.1057 25.3864 97.0777C25.4501 97.0498 25.5072 97.0089 25.5543 96.9577C25.6055 96.9096 25.6457 96.8511 25.6722 96.786C25.6987 96.721 25.7108 96.651 25.7078 96.5809V91.1514L30.3696 96.874C30.4326 96.9531 30.5141 97.0154 30.6069 97.0554C30.6959 97.0907 30.7904 97.1096 30.8861 97.1112C31.0541 97.1005 31.2115 97.0255 31.3257 96.9019C31.3824 96.8438 31.427 96.775 31.457 96.6995C31.4869 96.6241 31.5016 96.5434 31.5002 96.4622V90.1813C31.5032 90.1112 31.491 90.0412 31.4645 89.9762C31.438 89.9111 31.3978 89.8526 31.3467 89.8045C31.2477 89.7081 31.115 89.6542 30.9768 89.6542C30.8386 89.6542 30.7059 89.7081 30.6069 89.8045" fill="white"/>
</mask>
<g mask="url(#mask5_4_372)">
<path d="M31.5002 89.6372H24.668V97.1254H31.5002V89.6372Z" fill="url(#paint5_linear_4_372)"/>
</g>
<mask id="mask6_4_372" style="mask-type:luminance" maskUnits="userSpaceOnUse" x="32" y="89" width="8" height="9">
<path d="M33.0842 89.6928C33.0152 89.6899 32.9465 89.7012 32.8821 89.7261C32.8178 89.7509 32.7592 89.7887 32.7101 89.8372C32.661 89.8856 32.6224 89.9437 32.5967 90.0077C32.571 90.0717 32.5588 90.1403 32.5608 90.2092C32.5588 90.2785 32.5711 90.3474 32.5967 90.4118C32.6223 90.4762 32.6608 90.5346 32.7098 90.5836C32.7588 90.6326 32.8172 90.6711 32.8816 90.6967C32.946 90.7223 33.0149 90.7346 33.0842 90.7327H35.5267V96.5669C35.5241 96.6364 35.5358 96.7057 35.561 96.7705C35.5862 96.8353 35.6244 96.8943 35.6733 96.9438C35.7751 97.0374 35.9083 97.0894 36.0466 97.0894C36.185 97.0894 36.3182 97.0374 36.42 96.9438C36.4712 96.8957 36.5114 96.8371 36.5379 96.7721C36.5644 96.707 36.5765 96.6371 36.5735 96.5669V90.7047H38.9254C38.9946 90.7067 39.0636 90.6944 39.1279 90.6688C39.1923 90.6432 39.2508 90.6047 39.2998 90.5557C39.3488 90.5067 39.3873 90.4483 39.4129 90.3839C39.4385 90.3195 39.4507 90.2506 39.4488 90.1813C39.4508 90.1124 39.4385 90.0438 39.4128 89.9797C39.3871 89.9157 39.3485 89.8577 39.2994 89.8092C39.2503 89.7608 39.1918 89.723 39.1274 89.6981C39.0631 89.6733 38.9943 89.662 38.9254 89.6649L33.0842 89.6928Z" fill="white"/>
</mask>
<g mask="url(#mask6_4_372)">
<path d="M39.4488 89.6928H32.5608V97.0833H39.4488V89.6928Z" fill="url(#paint6_linear_4_372)"/>
</g>
<mask id="mask7_4_372" style="mask-type:luminance" maskUnits="userSpaceOnUse" x="44" y="89" width="8" height="9">
<path d="M50.3985 89.7905C50.3482 89.8378 50.3085 89.8953 50.2821 89.959C50.2556 90.0228 50.243 90.0914 50.2449 90.1604V95.3107L45.8972 89.9441C45.8239 89.8477 45.7287 89.7702 45.6195 89.718C45.5102 89.6658 45.3901 89.6404 45.2691 89.644C45.0568 89.6439 44.853 89.7273 44.7015 89.8761C44.5501 90.0249 44.4632 90.2273 44.4595 90.4395V96.5948C44.4584 96.662 44.4709 96.7288 44.496 96.7911C44.5212 96.8535 44.5586 96.9101 44.6061 96.9577C44.7002 97.0594 44.8306 97.1196 44.969 97.1252C45.0401 97.1274 45.1109 97.1149 45.1769 97.0885C45.243 97.0621 45.3029 97.0223 45.3528 96.9717C45.404 96.9236 45.4442 96.865 45.4707 96.8C45.4972 96.735 45.5094 96.665 45.5064 96.5948V91.1653L50.1682 96.8879C50.2301 96.9652 50.3089 97.0273 50.3985 97.0694C50.4896 97.1053 50.5866 97.1242 50.6846 97.1252C50.8515 97.1105 51.0076 97.0362 51.1243 96.9158C51.2357 96.7965 51.298 96.6395 51.2987 96.4762V90.1953C51.2995 90.0907 51.2693 89.9882 51.2119 89.9007C51.1545 89.8133 51.0726 89.7447 50.9764 89.7037C50.8802 89.6627 50.774 89.651 50.6711 89.6702C50.5683 89.6894 50.4734 89.7385 50.3985 89.8115" fill="white"/>
</mask>
<g mask="url(#mask7_4_372)">
<path d="M51.2987 89.6371H44.4595V97.1254H51.2987V89.6371Z" fill="url(#paint7_linear_4_372)"/>
</g>
<mask id="mask8_4_372" style="mask-type:luminance" maskUnits="userSpaceOnUse" x="52" y="89" width="9" height="9">
<path d="M55.7026 90.0488C55.4568 90.2006 55.2641 90.4249 55.1512 90.6908L52.4295 96.5181C52.3898 96.596 52.372 96.6834 52.3781 96.7707C52.3843 96.858 52.4141 96.942 52.4644 97.0136C52.5126 97.0873 52.5791 97.1473 52.6574 97.1876C52.7356 97.228 52.823 97.2474 52.911 97.2439C53.0108 97.2503 53.1101 97.2255 53.1951 97.173C53.2801 97.1205 53.3467 97.0428 53.3856 96.9508L56.1004 91.1165C56.1288 91.0389 56.1814 90.9725 56.2506 90.9272C56.3198 90.882 56.4017 90.8602 56.4842 90.8653C56.5677 90.8603 56.6505 90.8838 56.7189 90.932C56.7874 90.9802 56.8375 91.0501 56.861 91.1305L59.1291 96.9298C59.1639 97.0302 59.2303 97.1164 59.3185 97.1756C59.4066 97.2348 59.5116 97.2637 59.6176 97.2578C59.7027 97.2597 59.7868 97.2402 59.8624 97.2012C59.938 97.1622 60.0026 97.1049 60.0503 97.0345C60.1045 96.9666 60.139 96.8852 60.1501 96.799C60.1611 96.7129 60.1484 96.6254 60.1131 96.546L57.8311 90.7536C57.7232 90.4853 57.5388 90.2548 57.3007 90.0906C57.0562 89.9347 56.774 89.8478 56.4842 89.8394H56.4423C56.1677 89.836 55.8983 89.9137 55.6677 90.0627" fill="white"/>
</mask>
<g mask="url(#mask8_4_372)">
<path d="M60.1968 89.8254H52.3596V97.2578H60.1968V89.8254Z" fill="url(#paint8_linear_4_372)"/>
</g>
<mask id="mask9_4_372" style="mask-type:luminance" maskUnits="userSpaceOnUse" x="59" y="89" width="8" height="9">
<path d="M59.7851 89.6928C59.7162 89.6899 59.6474 89.7012 59.583 89.7261C59.5187 89.7509 59.4601 89.7887 59.411 89.8372C59.3619 89.8856 59.3233 89.9437 59.2976 90.0077C59.2719 90.0717 59.2597 90.1403 59.2617 90.2092C59.2598 90.2785 59.272 90.3474 59.2976 90.4118C59.3232 90.4762 59.3617 90.5346 59.4107 90.5836C59.4597 90.6326 59.5182 90.6711 59.5825 90.6967C59.6469 90.7223 59.7158 90.7346 59.7851 90.7327H62.1997V96.5669C62.1972 96.6364 62.2088 96.7057 62.234 96.7705C62.2592 96.8353 62.2974 96.8943 62.3463 96.9438C62.448 97.0398 62.5832 97.0924 62.7231 97.0903C62.8605 97.0899 62.9926 97.0375 63.093 96.9438C63.1442 96.8957 63.1844 96.8371 63.2109 96.7721C63.2374 96.707 63.2496 96.6371 63.2466 96.5669V90.7047H65.5984C65.6677 90.7067 65.7366 90.6944 65.801 90.6688C65.8653 90.6432 65.9238 90.6047 65.9728 90.5557C66.0218 90.5067 66.0603 90.4483 66.0859 90.3839C66.1115 90.3195 66.1237 90.2506 66.1218 90.1813C66.1238 90.1124 66.1115 90.0438 66.0859 89.9797C66.0602 89.9157 66.0215 89.8577 65.9724 89.8092C65.9233 89.7608 65.8648 89.723 65.8004 89.6981C65.7361 89.6733 65.6673 89.662 65.5984 89.6649L59.7851 89.6928Z" fill="white"/>
</mask>
<g mask="url(#mask9_4_372)">
<path d="M66.1498 89.6928H59.2617V97.0833H66.1498V89.6928Z" fill="url(#paint9_linear_4_372)"/>
</g>
<mask id="mask10_4_372" style="mask-type:luminance" maskUnits="userSpaceOnUse" x="67" y="89" width="2" height="9">
<path d="M67.3221 89.8394C67.2728 89.8875 67.2338 89.945 67.2075 90.0086C67.1811 90.0721 67.1678 90.1404 67.1685 90.2092V96.5669C67.1673 96.6368 67.1802 96.7063 67.2066 96.7711C67.233 96.8359 67.2723 96.8946 67.3221 96.9438C67.4207 97.0359 67.55 97.0881 67.685 97.0903C67.8266 97.0906 67.9634 97.0384 68.0688 96.9438C68.1177 96.8943 68.1559 96.8353 68.1811 96.7705C68.2063 96.7057 68.2179 96.6364 68.2154 96.5669V90.2092C68.2174 90.1409 68.2055 90.0728 68.1803 90.0092C68.1551 89.9456 68.1171 89.8878 68.0688 89.8394C67.9653 89.7416 67.8273 89.6889 67.685 89.6928C67.6178 89.6921 67.5512 89.7047 67.4889 89.7299C67.4266 89.755 67.3699 89.7922 67.3221 89.8394Z" fill="white"/>
</mask>
<g mask="url(#mask10_4_372)">
<path d="M68.2221 89.6928H67.1753V97.0833H68.2221V89.6928Z" fill="url(#paint10_linear_4_372)"/>
</g>
<mask id="mask11_4_372" style="mask-type:luminance" maskUnits="userSpaceOnUse" x="69" y="89" width="9" height="9">
<path d="M71.1534 95.7643C71.0579 95.6754 70.9824 95.5672 70.9318 95.4469C70.8813 95.3266 70.8569 95.1969 70.8603 95.0665V91.6748C70.8657 91.4168 70.9716 91.1711 71.1553 90.99C71.3391 90.8088 71.5862 90.7065 71.8443 90.7047H75.4593C75.5893 90.7 75.7187 90.7231 75.8391 90.7725C75.9594 90.8218 76.0679 90.8963 76.1572 90.9909C76.2494 91.0816 76.3219 91.1904 76.3699 91.3105C76.418 91.4307 76.4406 91.5594 76.4363 91.6887V95.0804C76.4406 95.2097 76.418 95.3385 76.3699 95.4586C76.3219 95.5788 76.2494 95.6876 76.1572 95.7783C76.0679 95.8729 75.9594 95.9474 75.8391 95.9967C75.7187 96.046 75.5893 96.0691 75.4593 96.0644H71.8582C71.7284 96.0682 71.5991 96.0447 71.4789 95.9954C71.3587 95.9462 71.2502 95.8722 71.1603 95.7783M71.8582 89.6928C71.5872 89.6928 71.319 89.7474 71.0696 89.8533C70.83 89.9554 70.6121 90.1022 70.4276 90.286C70.2439 90.4694 70.0949 90.6846 69.9879 90.9211C69.8812 91.1678 69.8266 91.4339 69.8274 91.7027V95.0944C69.8266 95.3632 69.8812 95.6293 69.9879 95.876C70.202 96.3549 70.588 96.7359 71.0696 96.9438C71.319 97.0497 71.5872 97.1043 71.8582 97.1043H75.4593C75.7303 97.1043 75.9985 97.0497 76.2479 96.9438C76.4904 96.8394 76.7125 96.693 76.9039 96.5111C77.0876 96.3292 77.2345 96.1136 77.3366 95.876C77.4465 95.6303 77.5013 95.3635 77.4971 95.0944V91.7027C77.5013 91.4336 77.4465 91.1668 77.3366 90.9211C77.2345 90.6835 77.0876 90.4679 76.9039 90.286C76.7145 90.1017 76.4919 89.9549 76.2479 89.8533C75.9985 89.7474 75.7303 89.6928 75.4593 89.6928H71.8582Z" fill="white"/>
</mask>
<g mask="url(#mask11_4_372)">
<path d="M77.49 89.6789H69.8203V97.0833H77.49V89.6789Z" fill="url(#paint11_linear_4_372)"/>
</g>
<mask id="mask12_4_372" style="mask-type:luminance" maskUnits="userSpaceOnUse" x="79" y="89" width="7" height="9">
<path d="M85.0273 89.7905C84.9759 89.8369 84.9354 89.8942 84.9089 89.9582C84.8823 90.0222 84.8703 90.0912 84.8737 90.1604V95.3107L80.519 89.944C80.4143 89.8153 80.2727 89.7218 80.1131 89.6762C79.9536 89.6306 79.7838 89.6352 79.627 89.6893C79.4701 89.7433 79.3336 89.8443 79.236 89.9785C79.1384 90.1127 79.0845 90.2736 79.0814 90.4395V96.5948C79.0803 96.662 79.0927 96.7288 79.1178 96.7911C79.143 96.8534 79.1805 96.9101 79.2279 96.9577C79.3228 97.0581 79.4528 97.1181 79.5908 97.1252C79.6619 97.1274 79.7327 97.1149 79.7988 97.0885C79.8648 97.0621 79.9247 97.0223 79.9746 96.9717C80.0258 96.9236 80.066 96.865 80.0925 96.8C80.119 96.735 80.1312 96.665 80.1282 96.5948V91.1653L84.79 96.8879C84.8519 96.9652 84.9307 97.0272 85.0203 97.0694C85.1116 97.1047 85.2085 97.1236 85.3064 97.1252C85.4744 97.1144 85.6318 97.0394 85.7461 96.9158C85.8028 96.8577 85.8474 96.789 85.8774 96.7135C85.9073 96.638 85.922 96.5573 85.9206 96.4762V90.1953C85.9235 90.1251 85.9114 90.0551 85.8849 89.9901C85.8584 89.9251 85.8182 89.8665 85.767 89.8184C85.7181 89.7683 85.6594 89.7288 85.5946 89.7024C85.5298 89.676 85.4602 89.6632 85.3902 89.6649C85.323 89.6638 85.2562 89.6762 85.1939 89.7014C85.1315 89.7266 85.0749 89.764 85.0273 89.8114" fill="white"/>
</mask>
<g mask="url(#mask12_4_372)">
<path d="M85.9273 89.6372H79.0881V97.1254H85.9273V89.6372Z" fill="url(#paint12_linear_4_372)"/>
</g>
<mask id="mask13_4_372" style="mask-type:luminance" maskUnits="userSpaceOnUse" x="0" y="0" width="86" height="85">
<path d="M60.4201 68.924C63.9095 59.3142 68.8993 45.6917 72.4027 36.0819L84.2038 3.66553C84.5064 4.22157 84.6051 4.86586 84.4829 5.48699C79.8304 30.4245 75.1639 55.3619 70.4835 80.2994L60.4201 68.924ZM38.4719 42.6001C62.0043 20.0308 79.2279 3.51898 79.8281 2.96765C80.0946 2.72865 80.3988 2.5353 80.7283 2.3954C81.0498 2.26541 81.3935 2.19903 81.7403 2.19998C70.4114 19.3305 59.0849 36.4774 47.7607 53.6405C44.6621 49.9697 41.5658 46.2895 38.4719 42.6001ZM81.2867 0.76236C80.3707 0.885928 79.514 1.28509 78.8301 1.90688C77.1133 3.3445 59.9875 19.1654 36.6644 40.9043H20.683H14.4998H13.9555C13.3623 40.9043 10.3126 40.7158 8.42133 38.8106C7.48934 37.9041 6.81768 36.7642 6.47643 35.5096C6.13518 34.2551 6.13683 32.932 6.48123 31.6783C5.4196 32.7636 4.81506 34.215 4.79237 35.733V35.9075C4.79237 39.6132 8.4632 42.614 13.0413 42.7187H36.2247L46.1416 54.5408L47.6141 56.5088L82.829 3.18399C79.2605 13.6661 75.3291 24.4669 71.0349 35.5864C66.6103 46.9758 62.109 57.8627 57.5309 68.2471L33.4612 68.1773H14.4859C10.4661 68.1075 7.19306 65.9999 6.32071 63.0828C5.95876 61.7781 6.02233 60.3919 6.50217 59.1258C5.52625 60.3992 5.04745 61.9845 5.15526 63.5853C5.54607 67.4515 9.91479 69.2032 10.5429 69.4404C11.747 69.8965 13.0324 70.0985 14.3184 70.0336H58.2288L69.6112 82.721H1.01685C0.769532 82.7174 0.529547 82.8051 0.342841 82.9673C0.156135 83.1296 0.0358262 83.3549 0.0049346 83.6004C-0.00876958 83.7357 0.00614742 83.8724 0.0487223 84.0016C0.0912972 84.1309 0.160579 84.2497 0.25206 84.3503C0.343542 84.451 0.455176 84.5314 0.579723 84.5861C0.704269 84.6409 0.838939 84.6688 0.974983 84.6681H71.3559L85.9275 5.7452C86.0934 4.86522 85.9728 3.95525 85.5834 3.14886C85.194 2.34248 84.5564 1.68215 83.7641 1.26483C83.1359 0.925054 82.4336 0.745288 81.7193 0.741425C81.5751 0.741425 81.4286 0.741425 81.2797 0.741425" fill="white"/>
</mask>
<g mask="url(#mask13_4_372)">
<path d="M22.1399 -36.9529L-36.7078 63.1103L64.0773 122.382L122.925 22.3193L22.1399 -36.9529Z" fill="url(#paint13_linear_4_372)"/>
</g>
<defs>
<linearGradient id="paint0_linear_4_372" x1="30.2142" y1="30.4552" x2="12.9641" y2="45.8624" gradientUnits="userSpaceOnUse">
<stop stop-color="#909ED0"/>
<stop offset="0.25" stop-color="#909ED0"/>
<stop offset="0.47" stop-color="#7F8CC4"/>
<stop offset="0.91" stop-color="#525DA6"/>
<stop offset="1" stop-color="#48539F"/>
</linearGradient>
<linearGradient id="paint1_linear_4_372" x1="-34.8094" y1="77.4179" x2="69.5901" y2="41.348" gradientUnits="userSpaceOnUse">
<stop stop-color="#48539F"/>
<stop offset="0.4" stop-color="#48539F"/>
<stop offset="0.95" stop-color="#909ED0"/>
<stop offset="1" stop-color="#909ED0"/>
</linearGradient>
<linearGradient id="paint2_linear_4_372" x1="0.0415214" y1="95.6211" x2="6.86857" y2="95.6211" gradientUnits="userSpaceOnUse">
<stop stop-color="#909ED0"/>
<stop offset="0.25" stop-color="#909ED0"/>
<stop offset="0.63" stop-color="#909ED0"/>
<stop offset="1" stop-color="#909ED0"/>
</linearGradient>
<linearGradient id="paint3_linear_4_372" x1="7.69922" y1="90.3733" x2="15.6136" y2="90.3733" gradientUnits="userSpaceOnUse">
<stop stop-color="#909ED0"/>
<stop offset="0.25" stop-color="#909ED0"/>
<stop offset="0.63" stop-color="#909ED0"/>
<stop offset="1" stop-color="#909ED0"/>
</linearGradient>
<linearGradient id="paint4_linear_4_372" x1="16.4271" y1="96.4451" x2="23.2541" y2="96.4451" gradientUnits="userSpaceOnUse">
<stop stop-color="#909ED0"/>
<stop offset="0.25" stop-color="#909ED0"/>
<stop offset="0.63" stop-color="#909ED0"/>
<stop offset="1" stop-color="#909ED0"/>
</linearGradient>
<linearGradient id="paint5_linear_4_372" x1="24.6928" y1="100.336" x2="31.4913" y2="100.336" gradientUnits="userSpaceOnUse">
<stop stop-color="#909ED0"/>
<stop offset="0.25" stop-color="#909ED0"/>
<stop offset="0.63" stop-color="#909ED0"/>
<stop offset="1" stop-color="#909ED0"/>
</linearGradient>
<linearGradient id="paint6_linear_4_372" x1="32.569" y1="91.6703" x2="39.4247" y2="91.6703" gradientUnits="userSpaceOnUse">
<stop stop-color="#909ED0"/>
<stop offset="0.25" stop-color="#909ED0"/>
<stop offset="0.63" stop-color="#909ED0"/>
<stop offset="1" stop-color="#909ED0"/>
</linearGradient>
<linearGradient id="paint7_linear_4_372" x1="44.4782" y1="100.336" x2="51.2766" y2="100.336" gradientUnits="userSpaceOnUse">
<stop stop-color="#909ED0"/>
<stop offset="0.25" stop-color="#909ED0"/>
<stop offset="0.63" stop-color="#909ED0"/>
<stop offset="1" stop-color="#909ED0"/>
</linearGradient>
<linearGradient id="paint8_linear_4_372" x1="52.3409" y1="95.5594" x2="60.1722" y2="95.5594" gradientUnits="userSpaceOnUse">
<stop stop-color="#909ED0"/>
<stop offset="0.25" stop-color="#909ED0"/>
<stop offset="0.63" stop-color="#909ED0"/>
<stop offset="1" stop-color="#909ED0"/>
</linearGradient>
<linearGradient id="paint9_linear_4_372" x1="59.2794" y1="91.6703" x2="66.1351" y2="91.6703" gradientUnits="userSpaceOnUse">
<stop stop-color="#909ED0"/>
<stop offset="0.25" stop-color="#909ED0"/>
<stop offset="0.63" stop-color="#909ED0"/>
<stop offset="1" stop-color="#909ED0"/>
</linearGradient>
<linearGradient id="paint10_linear_4_372" x1="67.1821" y1="94.4768" x2="68.2236" y2="94.4768" gradientUnits="userSpaceOnUse">
<stop stop-color="#909ED0"/>
<stop offset="0.25" stop-color="#909ED0"/>
<stop offset="0.63" stop-color="#909ED0"/>
<stop offset="1" stop-color="#909ED0"/>
</linearGradient>
<linearGradient id="paint11_linear_4_372" x1="69.7773" y1="97.3409" x2="77.4985" y2="97.3409" gradientUnits="userSpaceOnUse">
<stop stop-color="#909ED0"/>
<stop offset="0.25" stop-color="#909ED0"/>
<stop offset="0.63" stop-color="#909ED0"/>
<stop offset="1" stop-color="#909ED0"/>
</linearGradient>
<linearGradient id="paint12_linear_4_372" x1="79.1116" y1="100.336" x2="85.91" y2="100.336" gradientUnits="userSpaceOnUse">
<stop stop-color="#909ED0"/>
<stop offset="0.25" stop-color="#909ED0"/>
<stop offset="0.63" stop-color="#909ED0"/>
<stop offset="1" stop-color="#909ED0"/>
</linearGradient>
<linearGradient id="paint13_linear_4_372" x1="10.3145" y1="87.0151" x2="69.2278" y2="-13.1597" gradientUnits="userSpaceOnUse">
<stop stop-color="#909ED0"/>
<stop offset="0.33" stop-color="#909ED0"/>
<stop offset="0.37" stop-color="#8795CA"/>
<stop offset="0.53" stop-color="#6571B3"/>
<stop offset="0.66" stop-color="#505BA4"/>
<stop offset="0.75" stop-color="#48539F"/>
<stop offset="0.93" stop-color="#25234D"/>
<stop offset="1" stop-color="#25234D"/>
</linearGradient>
</defs>
</svg>
