<svg width="64" height="64" viewBox="0 0 64 64" fill="none" xmlns="http://www.w3.org/2000/svg">
<path d="M31.9998 51.3333V44.6666M10.6665 44.6666H53.3332C55.1741 44.6666 56.6665 43.1742 56.6665 41.3333V33.9841V24.8499V11.9999H33.2031H7.33317V33.3649V41.3333C7.33317 43.1742 8.82557 44.6666 10.6665 44.6666ZM6.99984 11.9999H56.9998C58.2885 11.9999 59.3332 10.9553 59.3332 9.66659C59.3332 8.37792 58.2885 7.33325 56.9998 7.33325H33.3332H6.99984C5.71117 7.33325 4.6665 8.37792 4.6665 9.66659C4.6665 10.9553 5.71117 11.9999 6.99984 11.9999Z" stroke="#25234d" stroke-width="3" stroke-linecap="round"/>
<path d="M32.0002 56.6666C33.4729 56.6666 34.6668 55.4727 34.6668 53.9999C34.6668 52.5272 33.4729 51.3333 32.0002 51.3333C30.5274 51.3333 29.3335 52.5272 29.3335 53.9999C29.3335 55.4727 30.5274 56.6666 32.0002 56.6666Z" stroke="#25234d" stroke-width="3"/>
<path d="M38.0341 26.5695C39.4436 27.323 39.4436 29.3437 38.0341 30.0971L30.7764 33.977C29.4441 34.6892 27.8335 33.7239 27.8335 32.2132V24.4535C27.8335 22.9428 29.4441 21.9775 30.7764 22.6897L38.0341 26.5695Z" stroke="#25234d" stroke-width="3"/>
</svg>
