<svg width="65" height="64" viewBox="0 0 65 64" fill="none" xmlns="http://www.w3.org/2000/svg">
<path fill-rule="evenodd" clip-rule="evenodd" d="M51.865 49.3083C51.865 49.3083 54.9583 50.3083 54.9583 53.375C54.9583 55.2683 53.025 56.1883 53.025 56.1883C52.3717 56.5217 52.105 57.3217 52.425 57.975C52.7583 58.6283 53.5583 58.895 54.2117 58.575C54.2117 58.575 57.6117 56.8283 57.6117 53.3883C57.6117 48.455 52.705 46.7883 52.705 46.7883C52.0117 46.5483 51.2517 46.935 51.025 47.6283C50.785 48.3217 51.1717 49.0817 51.865 49.3083ZM11.865 46.775C11.865 46.775 6.95833 48.4417 6.95833 53.375C6.95833 56.815 10.3583 58.5617 10.3583 58.5617C11.0117 58.895 11.825 58.6283 12.145 57.9617C12.4783 57.3083 12.2117 56.495 11.545 56.175C11.545 56.175 9.61167 55.255 9.61167 53.3617C9.61167 50.295 12.705 49.295 12.705 49.295C13.3983 49.0683 13.785 48.3083 13.545 47.615C13.3183 46.9217 12.5583 46.535 11.865 46.775ZM57.625 5.375H6.95833C6.225 5.375 5.625 5.975 5.625 6.70833C5.625 7.44167 6.225 8.04167 6.95833 8.04167H10.3183L13.5183 12.0417H6.95833C6.225 12.0417 5.625 12.6417 5.625 13.375C5.625 14.1083 6.225 14.7083 6.95833 14.7083H12.2917V18.1617C8.75833 20.3883 8.33167 22.415 8.33167 22.415C8.23833 22.7617 8.29167 23.1217 8.465 23.4283L13.6783 32.4683L17.0383 47.015L13.2117 50.655C12.545 50.975 12.0517 51.3217 11.705 51.6683C11.1717 52.215 10.945 52.8017 10.945 53.375C10.945 53.9483 11.1717 54.535 11.705 55.0817C12.1717 55.5617 12.9583 56.0417 14.0383 56.455C17.465 57.775 24.345 58.7083 32.2783 58.7083C40.2117 58.7083 47.105 57.775 50.5183 56.455C51.5983 56.0417 52.385 55.5617 52.8517 55.0817C53.385 54.535 53.6117 53.9483 53.6117 53.375C53.6117 52.8017 53.385 52.215 52.8517 51.6683C52.5183 51.3217 52.0117 50.975 51.345 50.655L47.5183 47.015L50.8783 32.4683L56.0917 23.4283C56.265 23.1217 56.3183 22.7617 56.225 22.415C56.225 22.415 55.7983 20.3883 52.265 18.1617V14.7083H57.5983C58.3317 14.7083 58.9317 14.1083 58.9317 13.375C58.9317 12.6417 58.3317 12.0417 57.5983 12.0417H51.0383L54.2383 8.04167H57.5983C58.3317 8.04167 58.9317 7.44167 58.9317 6.70833C58.9317 5.975 58.3317 5.375 57.5983 5.375H57.625ZM49.865 52.9083L50.4917 53.5083C50.225 53.6683 49.8917 53.855 49.5717 53.975C46.3317 55.2283 39.7983 56.0417 32.2917 56.0417C24.785 56.0417 18.2383 55.215 15.0117 53.975C14.6917 53.855 14.3583 53.6683 14.0917 53.5083L14.7183 52.9083C14.8117 52.8683 14.905 52.815 15.0117 52.7883C18.2517 51.535 24.785 50.7217 32.2917 50.7217C39.7983 50.7217 46.345 51.5483 49.5717 52.7883C49.665 52.8283 49.7583 52.8683 49.865 52.9083ZM26.9583 54.7083H37.625C38.3583 54.7083 38.9583 54.1083 38.9583 53.375C38.9583 52.6417 38.3583 52.0417 37.625 52.0417H26.9583C26.225 52.0417 25.625 52.6417 25.625 53.375C25.625 54.1083 26.225 54.7083 26.9583 54.7083ZM44.385 48.8417L44.5983 47.8817L32.2917 36.1617L19.985 47.8817L20.1983 48.8417C23.5983 48.335 27.7717 48.0417 32.2917 48.0417C36.8117 48.0417 40.985 48.3483 44.385 48.8417ZM39.425 29.375L34.225 34.3217L45.2917 44.8683L47.7583 34.1883C46.4117 34.215 44.6783 33.7617 42.9983 32.7883C41.3183 31.815 40.065 30.5483 39.4117 29.375H39.425ZM25.1583 29.375C24.505 30.5483 23.2517 31.8283 21.5717 32.7883C19.8917 33.7617 18.1583 34.215 16.8117 34.1883L19.2783 44.8683L30.345 34.3217L25.145 29.375H25.1583ZM19.0917 36.6417L20.425 39.3083C20.7583 39.9617 21.5583 40.2283 22.2117 39.9083C22.865 39.575 23.1317 38.775 22.8117 38.1217L21.4783 35.455C21.145 34.8017 20.345 34.535 19.6917 34.855C19.0383 35.1883 18.7717 35.9883 19.0917 36.6417ZM50.945 34.7083V38.7083C50.945 39.4417 51.545 40.0417 52.2783 40.0417C53.0117 40.0417 53.6117 39.4417 53.6117 38.7083V34.7083C53.6117 33.975 53.0117 33.375 52.2783 33.375C51.545 33.375 50.945 33.975 50.945 34.7083ZM10.945 34.7083V38.7083C10.945 39.4417 11.545 40.0417 12.2783 40.0417C13.0117 40.0417 13.6117 39.4417 13.6117 38.7083V34.7083C13.6117 33.975 13.0117 33.375 12.2783 33.375C11.545 33.375 10.945 33.975 10.945 34.7083ZM49.6117 14.7083H14.9583V16.775C17.7317 15.655 19.2117 16.135 19.2117 16.135C19.5583 16.2283 19.8383 16.455 20.025 16.7617L25.1983 25.7217L32.2917 32.4817C32.2917 32.4817 39.385 25.735 39.385 25.7217L44.5583 16.7483C44.7317 16.4417 45.025 16.215 45.3717 16.1217C45.3717 16.1217 46.8383 15.6417 49.625 16.7617V14.695L49.6117 14.7083ZM48.4517 31.335C48.3983 31.4283 48.2783 31.4417 48.1583 31.4683C47.9317 31.5217 47.6783 31.535 47.3983 31.5217C46.4917 31.4683 45.3983 31.1083 44.3317 30.495C43.265 29.8817 42.3983 29.1083 41.905 28.3483C41.745 28.1083 41.625 27.8817 41.5717 27.655C41.5317 27.535 41.4917 27.4283 41.545 27.335C41.5983 27.2417 41.7183 27.2283 41.8383 27.2017C42.065 27.1483 42.3183 27.135 42.5983 27.1483C43.505 27.2017 44.5983 27.5617 45.665 28.175C46.7317 28.7883 47.5983 29.5617 48.0917 30.3217C48.2517 30.5617 48.3717 30.7883 48.425 31.015C48.465 31.135 48.505 31.255 48.4517 31.335ZM16.0917 31.335C16.0383 31.2417 16.0917 31.135 16.1183 31.015C16.185 30.7883 16.305 30.5617 16.4517 30.3217C16.9583 29.5617 17.8117 28.8017 18.8783 28.175C19.945 27.5617 21.0383 27.2017 21.945 27.1483C22.225 27.135 22.4917 27.1483 22.705 27.2017C22.825 27.2283 22.945 27.2417 22.9983 27.335C23.0517 27.4283 22.9983 27.535 22.9717 27.655C22.905 27.8817 22.785 28.1083 22.6383 28.3483C22.1317 29.1083 21.2783 29.8683 20.2117 30.495C19.145 31.1083 18.0517 31.4683 17.145 31.5217C16.865 31.535 16.5983 31.5217 16.385 31.4683C16.265 31.4417 16.145 31.4283 16.0917 31.335ZM21.3983 24.5217L18.065 18.7483C17.385 18.815 16.0117 19.0683 14.225 20.095C12.4383 21.1217 11.5317 22.175 11.1317 22.7483L14.465 28.5217C15.1717 27.575 16.225 26.6283 17.545 25.8683C18.865 25.1083 20.2117 24.6683 21.385 24.5217H21.3983ZM43.145 24.5217C44.3183 24.6683 45.665 25.1083 46.985 25.8683C48.305 26.6283 49.3583 27.575 50.065 28.5217L53.3983 22.7483C52.9983 22.1883 52.0917 21.1217 50.305 20.095C48.5183 19.0683 47.145 18.8017 46.465 18.7483L43.1317 24.5217H43.145ZM36.865 22.935L34.1983 24.7083C33.585 25.1217 33.425 25.9483 33.825 26.5617C34.2383 27.175 35.065 27.335 35.6783 26.935L38.345 25.1617C38.9583 24.7483 39.1183 23.9217 38.7183 23.3083C38.305 22.695 37.4783 22.535 36.865 22.935ZM26.1983 25.1483L28.865 26.9217C29.4783 27.335 30.305 27.1617 30.7183 26.5483C31.1317 25.935 30.9583 25.1083 30.345 24.695L27.6783 22.9217C27.065 22.5083 26.2383 22.6817 25.825 23.295C25.4117 23.9083 25.585 24.735 26.1983 25.1483ZM19.0383 12.0417H24.1583L21.5983 8.84167L19.0383 12.0417ZM29.705 12.0417H34.825L32.265 8.84167L29.705 12.0417ZM40.3717 12.0417H45.4917L42.9317 8.84167L40.3717 12.0417ZM29.4917 8.04167H24.3717L26.9317 11.2417L29.4917 8.04167ZM18.825 8.04167H13.705L16.265 11.2417L18.825 8.04167ZM40.1583 8.04167H35.0383L37.5983 11.2417L40.1583 8.04167ZM50.825 8.04167H45.705L48.265 11.2417L50.825 8.04167Z" fill="#25234d"/>
</svg>
