<svg width="64" height="64" viewBox="0 0 64 64" fill="none" xmlns="http://www.w3.org/2000/svg">
<g clip-path="url(#clip0_83_118)">
<path d="M32 6C26.8577 6 21.8309 7.52487 17.5552 10.3818C13.2795 13.2387 9.94702 17.2994 7.97914 22.0502C6.01127 26.8011 5.49638 32.0288 6.49959 37.0723C7.50281 42.1159 9.97907 46.7486 13.6152 50.3848C17.2514 54.0209 21.8842 56.4972 26.9277 57.5004C31.9712 58.5036 37.1989 57.9887 41.9498 56.0209C46.7007 54.053 50.7613 50.7205 53.6182 46.4448C56.4751 42.1691 58 37.1423 58 32C57.9927 25.1066 55.2511 18.4976 50.3767 13.6233C45.5024 8.74889 38.8934 6.00728 32 6ZM42 34H26.8275L31.415 38.585C31.6008 38.7708 31.7482 38.9914 31.8488 39.2342C31.9494 39.477 32.0011 39.7372 32.0011 40C32.0011 40.2628 31.9494 40.523 31.8488 40.7658C31.7482 41.0086 31.6008 41.2292 31.415 41.415C31.2292 41.6008 31.0086 41.7482 30.7658 41.8488C30.523 41.9494 30.2628 42.0011 30 42.0011C29.7372 42.0011 29.477 41.9494 29.2342 41.8488C28.9914 41.7482 28.7708 41.6008 28.585 41.415L20.585 33.415C20.3991 33.2293 20.2515 33.0087 20.1509 32.7659C20.0502 32.5231 19.9984 32.2628 19.9984 32C19.9984 31.7372 20.0502 31.4769 20.1509 31.2341C20.2515 30.9913 20.3991 30.7707 20.585 30.585L28.585 22.585C28.9603 22.2097 29.4693 21.9989 30 21.9989C30.5307 21.9989 31.0397 22.2097 31.415 22.585C31.7903 22.9603 32.0011 23.4693 32.0011 24C32.0011 24.5307 31.7903 25.0397 31.415 25.415L26.8275 30H42C42.5304 30 43.0392 30.2107 43.4142 30.5858C43.7893 30.9609 44 31.4696 44 32C44 32.5304 43.7893 33.0391 43.4142 33.4142C43.0392 33.7893 42.5304 34 42 34Z" fill="white"/>
</g>
<defs>
<clipPath id="clip0_83_118">
<rect width="64" height="64" fill="white"/>
</clipPath>
</defs>
</svg>
