<svg width="64" height="64" viewBox="0 0 64 64" fill="none" xmlns="http://www.w3.org/2000/svg">
<g clip-path="url(#clip0_83_122)">
<path d="M32 6C37.1423 6 42.1691 7.52487 46.4448 10.3818C50.7205 13.2387 54.053 17.2994 56.0209 22.0502C57.9887 26.8011 58.5036 32.0288 57.5004 37.0723C56.4972 42.1159 54.0209 46.7486 50.3848 50.3848C46.7486 54.0209 42.1158 56.4972 37.0723 57.5004C32.0288 58.5036 26.8011 57.9887 22.0502 56.0209C17.2993 54.053 13.2387 50.7205 10.3818 46.4448C7.52486 42.1691 5.99999 37.1423 5.99999 32C6.00727 25.1066 8.74889 18.4976 13.6233 13.6233C18.4976 8.74889 25.1066 6.00728 32 6ZM22 34H37.1725L32.585 38.585C32.3992 38.7708 32.2518 38.9914 32.1512 39.2342C32.0506 39.477 31.9989 39.7372 31.9989 40C31.9989 40.2628 32.0506 40.523 32.1512 40.7658C32.2518 41.0086 32.3992 41.2292 32.585 41.415C32.7708 41.6008 32.9914 41.7482 33.2342 41.8488C33.477 41.9494 33.7372 42.0011 34 42.0011C34.2628 42.0011 34.523 41.9494 34.7658 41.8488C35.0086 41.7482 35.2292 41.6008 35.415 41.415L43.415 33.415C43.6009 33.2293 43.7485 33.0087 43.8491 32.7659C43.9498 32.5231 44.0016 32.2628 44.0016 32C44.0016 31.7372 43.9498 31.4769 43.8491 31.2341C43.7485 30.9913 43.6009 30.7707 43.415 30.585L35.415 22.585C35.0397 22.2097 34.5307 21.9989 34 21.9989C33.4693 21.9989 32.9603 22.2097 32.585 22.585C32.2097 22.9603 31.9989 23.4693 31.9989 24C31.9989 24.5307 32.2097 25.0397 32.585 25.415L37.1725 30H22C21.4696 30 20.9608 30.2107 20.5858 30.5858C20.2107 30.9609 20 31.4696 20 32C20 32.5304 20.2107 33.0391 20.5858 33.4142C20.9608 33.7893 21.4696 34 22 34Z" fill="white"/>
</g>
<defs>
<clipPath id="clip0_83_122">
<rect width="64" height="64" fill="white" transform="matrix(-1 0 0 1 64 0)"/>
</clipPath>
</defs>
</svg>
