<svg width="16" height="16" viewBox="0 0 16 16" fill="none" xmlns="http://www.w3.org/2000/svg">
<path d="M13.86 4.35379L8.36 1.34254C8.24962 1.28214 8.12582 1.25049 8 1.25049C7.87418 1.25049 7.75038 1.28214 7.64 1.34254L2.14 4.35379C2.02201 4.41834 1.92355 4.51344 1.85494 4.62912C1.78633 4.74479 1.75008 4.87679 1.75 5.01129V10.9888C1.75008 11.1233 1.78633 11.2553 1.85494 11.371C1.92355 11.4866 2.02201 11.5817 2.14 11.6463L7.64 14.6575C7.75029 14.7182 7.87412 14.75 8 14.75C8.12588 14.75 8.24971 14.7182 8.36 14.6575L13.86 11.6463C13.978 11.5817 14.0764 11.4866 14.1451 11.371C14.2137 11.2553 14.2499 11.1233 14.25 10.9888V5.01129C14.2499 4.87679 14.2137 4.74479 14.1451 4.62912C14.0764 4.51344 13.978 4.41834 13.86 4.35379ZM7.88 1.78129C7.91668 1.76082 7.95799 1.75007 8 1.75007C8.04201 1.75007 8.08332 1.76082 8.12 1.78129L13.5419 4.75004L8 7.78254L2.45813 4.75004L7.88 1.78129ZM2.38 11.2082C2.34064 11.1866 2.3078 11.1549 2.28493 11.1163C2.26205 11.0777 2.24999 11.0337 2.25 10.9888V5.20566L7.75 8.21566V14.1475L2.38 11.2082ZM13.62 11.2082L8.25 14.1457V8.21566L13.75 5.20566V10.9888C13.7499 11.0335 13.7378 11.0775 13.7149 11.1159C13.692 11.1544 13.6593 11.1861 13.62 11.2075V11.2082Z" fill="white"/>
</svg>
